M48
;Layer_Color=9474304
;FILE_FORMAT=2:4
INCH,TZ
;TYPE=PLATED
T1F00S00C0.0138
T2F00S00C0.0315
T3F00S00C0.0350
T4F00S00C0.0400
T5F00S00C0.0512
%
T01
X33189Y20827
X32913Y21181
X33701Y21102
X34370Y20591
X34331Y19882
X35591Y20197
X35197Y20748
X36220Y20945
X37008Y20512
X37441Y20591
X36850Y22717
X36339
X36142Y24094
X35984Y24409
X35236Y24094
Y23346
X33976Y22992
Y22598
X33740Y23661
Y24213
X32913Y24370
X32953Y23307
Y22205
X33898Y25472
X34764Y25354
X34606Y24803
X35472Y25394
X36181Y25354
X36575Y26417
X36949Y26270
X36260Y27520
X35264
X35236Y28071
X35512Y28228
X34488Y28110
X34016
X33228
Y28622
X32638Y28819
Y29370
Y28228
Y26969
X34016Y26535
X35079Y26024
X36181Y28937
X36417Y29213
X36457Y29606
Y30079
Y30512
X36220Y31102
X37441Y30984
X36929Y28189
X37768Y24499
X33937Y30118
X34134Y30512
X33434Y30709
X33789Y31073
X33434Y31614
Y32520
Y33425
Y34331
Y35236
X34154Y35266
X34213Y35945
X34173Y36417
Y36811
X34528
X34606Y37441
Y37913
Y38386
X34803Y39055
X34173Y38976
X33071Y38937
X33031Y38504
X33434Y38465
Y37402
X33425Y36732
X32835
X33071Y36417
X33425Y36102
X35472Y36220
X36732Y36142
X36811Y37008
X37244
Y37520
X36811
Y38031
X37244
Y38543
X36811
X35787Y39252
X36772Y41260
X37165
X37008Y42717
X37402
Y43110
X37008
X36614
X35236
X34803
Y42677
X35236
X33071Y42598
Y41890
X32520Y42283
X32538Y41417
X32913Y40866
X32538Y40354
X32913Y39961
X32538Y39370
X34528Y41024
X34961Y34606
X35433Y34803
X35906Y35118
X35591Y33898
X36909Y33829
X37520Y33504
X37598Y32480
X36417Y32874
X35709Y32520
X36181Y32008
X34921Y31890
X35276Y31535
X34213Y33268
X37520Y35512
T02
X33061Y39508
X34439
T03
X33750Y22000
X34750
X35750
X36750
Y27150
X35750
X34750
X33750
T04
X32000Y20000
Y21000
Y22000
Y23000
Y24000
Y25000
Y26000
Y27000
Y28000
Y29000
Y30000
Y31000
X38000
Y30000
Y29000
Y28000
Y27000
Y26000
Y25000
Y24000
Y23000
Y22000
Y21000
Y20000
Y32000
Y33000
Y34000
Y35000
Y36000
Y37000
Y38000
Y39000
Y40000
Y41000
Y42000
Y43000
X32000
Y42000
Y41000
Y40000
Y39000
Y38000
Y37000
Y36000
Y35000
Y34000
Y33000
Y32000
T05
X36150Y35750
Y36750
Y37750
Y38750
Y39750
Y40750
Y41750
Y42750
M30
