G04 Layer_Physical_Order=2*
G04 Layer_Color=16750950*
%FSLAX24Y24*%
%MOIN*%
G70*
G01*
G75*
G04:AMPARAMS|DCode=10|XSize=20mil|YSize=20mil|CornerRadius=5mil|HoleSize=0mil|Usage=FLASHONLY|Rotation=270.000|XOffset=0mil|YOffset=0mil|HoleType=Round|Shape=RoundedRectangle|*
%AMROUNDEDRECTD10*
21,1,0.0200,0.0100,0,0,270.0*
21,1,0.0100,0.0200,0,0,270.0*
1,1,0.0100,-0.0050,-0.0050*
1,1,0.0100,-0.0050,0.0050*
1,1,0.0100,0.0050,0.0050*
1,1,0.0100,0.0050,-0.0050*
%
%ADD10ROUNDEDRECTD10*%
%ADD13C,0.0079*%
%ADD14C,0.0118*%
%ADD15C,0.0295*%
%ADD16C,0.0197*%
%ADD17C,0.0600*%
%ADD18C,0.0630*%
%ADD19C,0.0709*%
%ADD20R,0.0700X0.0700*%
%ADD21C,0.0700*%
%ADD22C,0.0295*%
%ADD23R,0.0098X0.0177*%
%ADD24R,0.0177X0.0098*%
%ADD25R,0.0316X0.0383*%
G04:AMPARAMS|DCode=26|XSize=50mil|YSize=24mil|CornerRadius=6mil|HoleSize=0mil|Usage=FLASHONLY|Rotation=0.000|XOffset=0mil|YOffset=0mil|HoleType=Round|Shape=RoundedRectangle|*
%AMROUNDEDRECTD26*
21,1,0.0500,0.0120,0,0,0.0*
21,1,0.0380,0.0240,0,0,0.0*
1,1,0.0120,0.0190,-0.0060*
1,1,0.0120,-0.0190,-0.0060*
1,1,0.0120,-0.0190,0.0060*
1,1,0.0120,0.0190,0.0060*
%
%ADD26ROUNDEDRECTD26*%
G04:AMPARAMS|DCode=27|XSize=20mil|YSize=20mil|CornerRadius=5mil|HoleSize=0mil|Usage=FLASHONLY|Rotation=180.000|XOffset=0mil|YOffset=0mil|HoleType=Round|Shape=RoundedRectangle|*
%AMROUNDEDRECTD27*
21,1,0.0200,0.0100,0,0,180.0*
21,1,0.0100,0.0200,0,0,180.0*
1,1,0.0100,-0.0050,0.0050*
1,1,0.0100,0.0050,0.0050*
1,1,0.0100,0.0050,-0.0050*
1,1,0.0100,-0.0050,-0.0050*
%
%ADD27ROUNDEDRECTD27*%
G04:AMPARAMS|DCode=28|XSize=30mil|YSize=22mil|CornerRadius=5.5mil|HoleSize=0mil|Usage=FLASHONLY|Rotation=0.000|XOffset=0mil|YOffset=0mil|HoleType=Round|Shape=RoundedRectangle|*
%AMROUNDEDRECTD28*
21,1,0.0300,0.0110,0,0,0.0*
21,1,0.0190,0.0220,0,0,0.0*
1,1,0.0110,0.0095,-0.0055*
1,1,0.0110,-0.0095,-0.0055*
1,1,0.0110,-0.0095,0.0055*
1,1,0.0110,0.0095,0.0055*
%
%ADD28ROUNDEDRECTD28*%
G04:AMPARAMS|DCode=29|XSize=30mil|YSize=22mil|CornerRadius=5.5mil|HoleSize=0mil|Usage=FLASHONLY|Rotation=270.000|XOffset=0mil|YOffset=0mil|HoleType=Round|Shape=RoundedRectangle|*
%AMROUNDEDRECTD29*
21,1,0.0300,0.0110,0,0,270.0*
21,1,0.0190,0.0220,0,0,270.0*
1,1,0.0110,-0.0055,-0.0095*
1,1,0.0110,-0.0055,0.0095*
1,1,0.0110,0.0055,0.0095*
1,1,0.0110,0.0055,-0.0095*
%
%ADD29ROUNDEDRECTD29*%
%ADD30O,0.0614X0.0307*%
%ADD31O,0.0307X0.0614*%
G04:AMPARAMS|DCode=32|XSize=17.7mil|YSize=41.3mil|CornerRadius=1.9mil|HoleSize=0mil|Usage=FLASHONLY|Rotation=180.000|XOffset=0mil|YOffset=0mil|HoleType=Round|Shape=RoundedRectangle|*
%AMROUNDEDRECTD32*
21,1,0.0177,0.0374,0,0,180.0*
21,1,0.0138,0.0413,0,0,180.0*
1,1,0.0039,-0.0069,0.0187*
1,1,0.0039,0.0069,0.0187*
1,1,0.0039,0.0069,-0.0187*
1,1,0.0039,-0.0069,-0.0187*
%
%ADD32ROUNDEDRECTD32*%
%ADD33R,0.0256X0.0374*%
G04:AMPARAMS|DCode=34|XSize=50mil|YSize=24mil|CornerRadius=6mil|HoleSize=0mil|Usage=FLASHONLY|Rotation=90.000|XOffset=0mil|YOffset=0mil|HoleType=Round|Shape=RoundedRectangle|*
%AMROUNDEDRECTD34*
21,1,0.0500,0.0120,0,0,90.0*
21,1,0.0380,0.0240,0,0,90.0*
1,1,0.0120,0.0060,0.0190*
1,1,0.0120,0.0060,-0.0190*
1,1,0.0120,-0.0060,-0.0190*
1,1,0.0120,-0.0060,0.0190*
%
%ADD34ROUNDEDRECTD34*%
G04:AMPARAMS|DCode=35|XSize=23.6mil|YSize=39.4mil|CornerRadius=2mil|HoleSize=0mil|Usage=FLASHONLY|Rotation=0.000|XOffset=0mil|YOffset=0mil|HoleType=Round|Shape=RoundedRectangle|*
%AMROUNDEDRECTD35*
21,1,0.0236,0.0354,0,0,0.0*
21,1,0.0196,0.0394,0,0,0.0*
1,1,0.0040,0.0098,-0.0177*
1,1,0.0040,-0.0098,-0.0177*
1,1,0.0040,-0.0098,0.0177*
1,1,0.0040,0.0098,0.0177*
%
%ADD35ROUNDEDRECTD35*%
%ADD36R,0.0236X0.0433*%
%ADD37C,0.0394*%
%ADD38C,0.0080*%
G36*
X34054Y40165D02*
X34093D01*
X34131Y40173D01*
X34137Y40177D01*
X34187Y40150D01*
Y39803D01*
X34192Y39791D01*
X34172Y39775D01*
X34111Y39697D01*
X34074Y39606D01*
X34061Y39508D01*
X34074Y39410D01*
X34111Y39319D01*
X34172Y39240D01*
X34250Y39180D01*
X34341Y39143D01*
X34439Y39130D01*
X34537Y39143D01*
X34628Y39180D01*
X34706Y39240D01*
X34766Y39319D01*
X34804Y39410D01*
X34811Y39463D01*
X35848D01*
X35854Y39454D01*
X35941Y39388D01*
X36042Y39346D01*
X36150Y39332D01*
X36258Y39346D01*
X36359Y39388D01*
X36446Y39454D01*
X36452Y39463D01*
X37323D01*
X37369Y39482D01*
X37388Y39528D01*
Y40197D01*
X37369Y40243D01*
X37310Y40301D01*
X37331Y40351D01*
X37477D01*
X37598Y40230D01*
Y34121D01*
X37507D01*
X37409Y34220D01*
X37369Y34246D01*
X37323Y34255D01*
X37323Y34255D01*
X36614D01*
X36568Y34246D01*
X36528Y34220D01*
X36528Y34220D01*
X36502Y34193D01*
X36470Y34197D01*
X36464Y34202D01*
X36435Y34245D01*
X36439Y34269D01*
X36260D01*
Y34328D01*
X36201D01*
Y34507D01*
X36160Y34499D01*
X36117Y34470D01*
X36089Y34428D01*
X36079Y34378D01*
Y34278D01*
X36057Y34244D01*
X36052Y34242D01*
X36027Y34269D01*
X36028Y34278D01*
Y34378D01*
X36020Y34420D01*
X35995Y34457D01*
X35959Y34481D01*
X35916Y34490D01*
X35816D01*
X35773Y34481D01*
X35737Y34457D01*
X35732Y34449D01*
X35576D01*
Y34528D01*
X35557Y34574D01*
X35511Y34593D01*
X35195D01*
X35149Y34574D01*
X35130Y34528D01*
Y34145D01*
X35149Y34099D01*
X35195Y34080D01*
X35511D01*
X35557Y34099D01*
X35576Y34145D01*
Y34206D01*
X35732D01*
X35737Y34198D01*
X35749Y34190D01*
X35754Y34166D01*
X35780Y34127D01*
X35938Y33969D01*
X35938Y33969D01*
X35977Y33943D01*
X36024Y33934D01*
X36535D01*
X36535Y33934D01*
X36582Y33943D01*
X36621Y33969D01*
X36664Y34012D01*
X36728D01*
X36749Y33962D01*
X36714Y33910D01*
X36698Y33829D01*
X36671Y33811D01*
X36621Y33814D01*
X36575Y33833D01*
X36259D01*
X36214Y33814D01*
X36195Y33768D01*
Y33738D01*
X35742D01*
X35680Y33726D01*
X35628Y33691D01*
X35220Y33284D01*
X35185Y33231D01*
X35173Y33169D01*
Y32984D01*
X35161Y32979D01*
X35142Y32933D01*
Y32559D01*
X35161Y32513D01*
X35207Y32494D01*
X35463D01*
X35509Y32513D01*
X35528Y32559D01*
Y32933D01*
X35509Y32979D01*
X35496Y32984D01*
Y33102D01*
X35809Y33415D01*
X36195D01*
Y33385D01*
X36214Y33340D01*
X36259Y33320D01*
X36575D01*
X36621Y33340D01*
X36640Y33385D01*
Y33415D01*
X36697D01*
X36759Y33428D01*
X36811Y33463D01*
X36979Y33631D01*
X36990Y33633D01*
X37059Y33679D01*
X37105Y33748D01*
X37121Y33829D01*
X37105Y33910D01*
X37070Y33962D01*
X37091Y34012D01*
X37273D01*
X37371Y33914D01*
X37371Y33914D01*
X37410Y33888D01*
X37457Y33879D01*
X37457Y33879D01*
X37598D01*
Y33001D01*
X37014D01*
Y33071D01*
X36995Y33117D01*
X36949Y33136D01*
X36633D01*
X36588Y33117D01*
X36569Y33071D01*
Y32689D01*
X36588Y32643D01*
X36633Y32624D01*
X36657D01*
Y32536D01*
X36649Y32531D01*
X36624Y32494D01*
X36616Y32452D01*
Y32352D01*
X36624Y32309D01*
X36649Y32272D01*
X36685Y32248D01*
X36728Y32239D01*
X36828D01*
X36871Y32248D01*
X36907Y32272D01*
X36932Y32309D01*
X36940Y32352D01*
Y32452D01*
X36932Y32494D01*
X36907Y32531D01*
X36899Y32536D01*
Y32624D01*
X36949D01*
X36995Y32643D01*
X37014Y32689D01*
Y32759D01*
X37598D01*
Y31814D01*
X35973D01*
X35936Y31864D01*
X35937Y31870D01*
Y31998D01*
X35768D01*
Y32057D01*
X35709D01*
Y32344D01*
X35699D01*
X35660Y32337D01*
X35628Y32315D01*
X35620Y32314D01*
X35612Y32319D01*
X35581Y32325D01*
X35443D01*
X35412Y32319D01*
X35403Y32314D01*
X35396Y32315D01*
X35363Y32337D01*
X35325Y32344D01*
X35315D01*
Y32057D01*
Y31770D01*
X35325D01*
X35363Y31777D01*
X35410Y31749D01*
X35426Y31725D01*
X35544Y31607D01*
X35544Y31607D01*
X35583Y31581D01*
X35630Y31572D01*
X35630Y31572D01*
X37598D01*
Y30742D01*
X37330Y30473D01*
X37308Y30440D01*
X37300Y30402D01*
Y30351D01*
X37272Y30332D01*
X37248Y30296D01*
X37239Y30253D01*
Y30153D01*
X37212Y30111D01*
X37199Y30102D01*
X37168Y30096D01*
X37136Y30074D01*
X37054Y29993D01*
X37032Y29960D01*
X37025Y29921D01*
Y29215D01*
X36743Y28934D01*
X36704Y28966D01*
X36723Y28994D01*
X36735Y29055D01*
X36735Y29055D01*
X36735Y30748D01*
X36723Y30809D01*
X36688Y30862D01*
X36636Y30896D01*
X36575Y30909D01*
X36334D01*
X36320Y30906D01*
X36306Y30906D01*
X36290Y30900D01*
X36272Y30896D01*
X36261Y30889D01*
X36248Y30884D01*
X36235Y30871D01*
X36220Y30862D01*
X36168Y30864D01*
X35918Y31114D01*
Y31280D01*
X35912Y31311D01*
X35894Y31337D01*
X35868Y31355D01*
X35837Y31361D01*
X35699D01*
X35668Y31355D01*
X35641Y31337D01*
X35624Y31311D01*
X35618Y31280D01*
Y30975D01*
X35571Y30956D01*
X35462Y31065D01*
X35468Y31093D01*
X35451Y31174D01*
X35406Y31242D01*
Y31280D01*
X35400Y31311D01*
X35382Y31337D01*
X35356Y31355D01*
X35325Y31361D01*
X35187D01*
X35156Y31355D01*
X35129Y31337D01*
X35112Y31311D01*
X35107Y31285D01*
X34001D01*
Y33479D01*
X34026Y33499D01*
X34778D01*
X34787Y33478D01*
X34833Y33459D01*
X35089D01*
X35134Y33478D01*
X35154Y33524D01*
Y33626D01*
X35156Y33630D01*
X35172Y33711D01*
X35156Y33792D01*
X35154Y33796D01*
Y33898D01*
X35134Y33944D01*
X35089Y33963D01*
X34833D01*
X34787Y33944D01*
X34778Y33922D01*
X34113D01*
X34001Y34035D01*
Y34965D01*
X34065D01*
X34146Y34982D01*
X34215Y35027D01*
X34303Y35116D01*
X34349Y35185D01*
X34365Y35266D01*
X34349Y35347D01*
X34303Y35415D01*
X34235Y35461D01*
X34154Y35477D01*
X34073Y35461D01*
X34050Y35446D01*
X34006Y35470D01*
Y36219D01*
X34056Y36246D01*
X34092Y36222D01*
X34173Y36206D01*
X34254Y36222D01*
X34323Y36268D01*
X34342Y36296D01*
X34545D01*
X35106Y35735D01*
X35103Y35726D01*
X35094Y35659D01*
Y35515D01*
X34869Y35290D01*
X34821D01*
X34775Y35271D01*
X34756Y35225D01*
Y35165D01*
X34754Y35163D01*
X34729Y35101D01*
X34720Y35033D01*
X34729Y34966D01*
X34754Y34904D01*
X34756Y34902D01*
Y34842D01*
X34775Y34796D01*
X34821Y34777D01*
X34958D01*
X34979Y34774D01*
X35000Y34777D01*
X35137D01*
X35183Y34796D01*
X35202Y34842D01*
Y34890D01*
X35536Y35224D01*
X35577Y35278D01*
X35603Y35340D01*
X35612Y35407D01*
Y35491D01*
X35827D01*
X35854Y35454D01*
X35941Y35388D01*
X36042Y35346D01*
X36138Y35334D01*
Y34862D01*
X36131Y34857D01*
X36106Y34820D01*
X36098Y34778D01*
Y34678D01*
X36106Y34635D01*
X36131Y34598D01*
X36167Y34574D01*
X36210Y34565D01*
X36310D01*
X36353Y34574D01*
X36389Y34598D01*
X36413Y34635D01*
X36422Y34678D01*
Y34778D01*
X36413Y34820D01*
X36389Y34857D01*
X36381Y34862D01*
Y35405D01*
X36446Y35454D01*
X36512Y35541D01*
X36554Y35642D01*
X36568Y35750D01*
X36554Y35858D01*
X36512Y35959D01*
X36446Y36045D01*
X36359Y36112D01*
X36258Y36154D01*
X36150Y36168D01*
X36042Y36154D01*
X35941Y36112D01*
X35854Y36045D01*
X35827Y36009D01*
X35443D01*
X35376Y36000D01*
X35314Y35974D01*
X35260Y35933D01*
X35255Y35928D01*
X34862Y36322D01*
X34883Y36372D01*
X34925D01*
X34979Y36365D01*
X35033Y36372D01*
X35107D01*
X35153Y36391D01*
X35172Y36437D01*
Y36451D01*
X35397Y36676D01*
X35506Y36567D01*
X35559Y36526D01*
X35622Y36500D01*
X35689Y36491D01*
X35827D01*
X35854Y36454D01*
X35941Y36388D01*
X36042Y36346D01*
X36150Y36332D01*
X36258Y36346D01*
X36359Y36388D01*
X36446Y36454D01*
X36512Y36541D01*
X36554Y36642D01*
X36568Y36750D01*
X36554Y36858D01*
X36512Y36959D01*
X36446Y37045D01*
X36359Y37112D01*
X36258Y37154D01*
X36150Y37168D01*
X36042Y37154D01*
X35941Y37112D01*
X35854Y37045D01*
X35839Y37026D01*
X35782Y37023D01*
X35656Y37149D01*
Y37677D01*
Y38150D01*
Y38622D01*
X35647Y38689D01*
X35621Y38752D01*
X35580Y38805D01*
X35553Y38833D01*
Y38931D01*
X35570Y38942D01*
X35597Y38982D01*
X35606Y39029D01*
Y39149D01*
X35597Y39196D01*
X35570Y39235D01*
X35531Y39262D01*
X35484Y39271D01*
X35478D01*
X35477Y39272D01*
X35423Y39313D01*
X35361Y39339D01*
X35294Y39348D01*
X35227Y39339D01*
X35164Y39313D01*
X35111Y39272D01*
X35110Y39271D01*
X35104D01*
X35057Y39262D01*
X35017Y39235D01*
X34991Y39196D01*
X34981Y39149D01*
Y39029D01*
X34991Y38982D01*
X35017Y38942D01*
X35035Y38931D01*
Y38740D01*
X34985Y38735D01*
X34978Y38769D01*
X34948Y38813D01*
X34904Y38843D01*
X34856Y38853D01*
Y38681D01*
X34988D01*
Y38695D01*
X35038Y38698D01*
X35043Y38658D01*
X35069Y38596D01*
X35111Y38542D01*
X35138Y38515D01*
Y38150D01*
Y37677D01*
Y37149D01*
X35030Y37042D01*
X34981Y37058D01*
X34978Y37061D01*
X34988Y37110D01*
Y37146D01*
X34856D01*
Y36974D01*
X34901Y36983D01*
X34904Y36981D01*
X34920Y36932D01*
X34864Y36876D01*
X34851D01*
X34805Y36857D01*
X34786Y36811D01*
Y36795D01*
X34754Y36754D01*
X34729Y36691D01*
X34720Y36624D01*
X34729Y36557D01*
X34750Y36504D01*
X34708Y36476D01*
X34681Y36503D01*
X34641Y36529D01*
X34595Y36539D01*
X34595Y36539D01*
X34342D01*
X34323Y36567D01*
X34254Y36613D01*
X34173Y36629D01*
X34092Y36613D01*
X34056Y36589D01*
X34006Y36616D01*
Y37205D01*
Y37677D01*
Y38150D01*
Y38622D01*
Y39581D01*
X33990Y39663D01*
X33944Y39731D01*
X33541Y40135D01*
X33562Y40184D01*
X33719D01*
X33750Y40191D01*
X33762Y40199D01*
X33818Y40197D01*
X33825Y40195D01*
X33858Y40173D01*
X33896Y40165D01*
X33935D01*
Y40443D01*
X34054D01*
Y40165D01*
D02*
G37*
G36*
X35748Y42362D02*
X36181Y41929D01*
X36181Y41378D01*
X35906D01*
X35709Y41181D01*
Y40276D01*
X37244D01*
X37323Y40197D01*
Y39528D01*
X34528D01*
X34252Y39803D01*
Y40354D01*
X35000D01*
X35236Y40591D01*
Y42362D01*
X35630D01*
X35748Y42362D01*
D02*
G37*
G36*
X32948Y25214D02*
Y25144D01*
X32957Y25101D01*
X32981Y25064D01*
X33017Y25040D01*
X33060Y25032D01*
X33160D01*
X33203Y25040D01*
X33227Y25056D01*
X33281D01*
X33308Y25006D01*
X33300Y24994D01*
X33291Y24948D01*
X33291Y24948D01*
Y24898D01*
X33283Y24893D01*
X33259Y24857D01*
X33250Y24814D01*
Y24714D01*
X33259Y24671D01*
X33283Y24634D01*
X33291Y24629D01*
Y24619D01*
X33291Y24619D01*
X33300Y24572D01*
X33327Y24533D01*
X33457Y24402D01*
X33457Y24402D01*
X33497Y24376D01*
X33517Y24321D01*
X33516Y24320D01*
X33508Y24314D01*
X33213D01*
X33174Y24306D01*
X33141Y24284D01*
X32487Y23630D01*
X32441Y23650D01*
Y24298D01*
X32749Y24606D01*
X32771Y24638D01*
X32778Y24677D01*
Y25116D01*
X32898Y25235D01*
X32948Y25214D01*
D02*
G37*
G36*
X32677Y42362D02*
Y39055D01*
X33583D01*
Y35202D01*
X33578Y35177D01*
Y33947D01*
Y31073D01*
X33583Y31048D01*
Y30748D01*
X34908D01*
X34913Y30698D01*
X34877Y30691D01*
X34809Y30645D01*
X34769Y30606D01*
X34740Y30562D01*
X34723Y30560D01*
X34683Y30567D01*
X34662Y30599D01*
X34619Y30627D01*
X34578Y30635D01*
Y30456D01*
Y30276D01*
X34619Y30285D01*
X34657Y30310D01*
X34679Y30305D01*
X34707Y30291D01*
Y30151D01*
X34704Y30146D01*
X34688Y30063D01*
Y29991D01*
X34554Y29857D01*
X34326D01*
X34295Y29863D01*
X33988D01*
X33958Y29857D01*
X33712D01*
X33697Y29907D01*
X33720Y29923D01*
X33748Y29965D01*
X33757Y30006D01*
X33577D01*
X33398D01*
X33406Y29965D01*
X33434Y29923D01*
X33466Y29901D01*
X33473Y29862D01*
X33471Y29844D01*
X33427Y29815D01*
X33400Y29774D01*
X33350Y29789D01*
Y29882D01*
X33350Y29882D01*
X33340Y29928D01*
X33314Y29968D01*
X33314Y29968D01*
X32641Y30641D01*
Y35480D01*
X32641Y35480D01*
X32632Y35527D01*
X32606Y35566D01*
X32606Y35566D01*
X32402Y35770D01*
Y36361D01*
X32448Y36381D01*
X32497Y36331D01*
X32497Y36331D01*
X32536Y36305D01*
X32583Y36296D01*
X32583Y36296D01*
X32902D01*
X32921Y36268D01*
X32990Y36222D01*
X33071Y36206D01*
X33152Y36222D01*
X33221Y36268D01*
X33266Y36336D01*
X33283Y36417D01*
X33266Y36498D01*
X33221Y36567D01*
X33152Y36613D01*
X33071Y36629D01*
X32990Y36613D01*
X32921Y36567D01*
X32902Y36539D01*
X32633D01*
X32402Y36770D01*
Y37648D01*
X32490D01*
X32508Y37620D01*
X32536Y37602D01*
Y37550D01*
X32508Y37531D01*
X32484Y37494D01*
X32476Y37452D01*
Y37352D01*
X32484Y37309D01*
X32508Y37272D01*
X32545Y37248D01*
X32588Y37239D01*
X32688D01*
X32731Y37248D01*
X32767Y37272D01*
X32791Y37309D01*
X32800Y37352D01*
Y37452D01*
X32791Y37494D01*
X32767Y37531D01*
X32739Y37550D01*
Y37602D01*
X32767Y37620D01*
X32791Y37657D01*
X32800Y37700D01*
Y37737D01*
X32850Y37763D01*
X32869Y37748D01*
Y37700D01*
X32878Y37657D01*
X32902Y37620D01*
X32930Y37602D01*
Y37550D01*
X32902Y37531D01*
X32878Y37494D01*
X32869Y37452D01*
Y37352D01*
X32878Y37309D01*
X32902Y37272D01*
X32939Y37248D01*
X32982Y37239D01*
X33082D01*
X33124Y37248D01*
X33161Y37272D01*
X33185Y37309D01*
X33194Y37352D01*
Y37452D01*
X33185Y37494D01*
X33161Y37531D01*
X33133Y37550D01*
Y37602D01*
X33161Y37620D01*
X33185Y37657D01*
X33194Y37700D01*
Y37800D01*
X33185Y37843D01*
X33161Y37879D01*
X33124Y37903D01*
X33082Y37912D01*
X33033D01*
X33012Y37938D01*
X33035Y37987D01*
X33082D01*
X33124Y37996D01*
X33161Y38020D01*
X33185Y38057D01*
X33194Y38100D01*
Y38200D01*
X33185Y38243D01*
X33161Y38279D01*
X33159Y38280D01*
Y38339D01*
X33181Y38354D01*
X33227Y38423D01*
X33243Y38504D01*
X33227Y38585D01*
X33181Y38654D01*
X33113Y38700D01*
X33031Y38716D01*
X32950Y38700D01*
X32882Y38654D01*
X32836Y38585D01*
X32820Y38504D01*
X32836Y38423D01*
X32882Y38354D01*
X32904Y38339D01*
Y38280D01*
X32902Y38279D01*
X32878Y38243D01*
X32869Y38200D01*
Y38168D01*
X32819Y38143D01*
X32800Y38157D01*
Y38200D01*
X32791Y38243D01*
X32767Y38279D01*
X32731Y38303D01*
X32688Y38312D01*
X32588D01*
X32545Y38303D01*
X32508Y38279D01*
X32484Y38243D01*
X32476Y38200D01*
Y38100D01*
X32484Y38057D01*
X32508Y38020D01*
X32545Y37996D01*
X32588Y37987D01*
X32643D01*
X32663Y37961D01*
X32641Y37912D01*
X32588D01*
X32545Y37903D01*
X32508Y37879D01*
X32490Y37851D01*
X32402D01*
Y41260D01*
Y41496D01*
X31701D01*
Y41689D01*
X31751Y41714D01*
X31809Y41669D01*
X31901Y41631D01*
X31941Y41626D01*
Y42000D01*
Y42374D01*
X31901Y42369D01*
X31809Y42331D01*
X31751Y42286D01*
X31701Y42311D01*
Y42480D01*
X32559D01*
X32677Y42362D01*
D02*
G37*
G36*
X37318Y24980D02*
Y24924D01*
X37327Y24881D01*
X37351Y24844D01*
X37387Y24820D01*
X37430Y24811D01*
X37530D01*
X37563Y24774D01*
X37552Y24762D01*
X37518Y24736D01*
X37430D01*
X37387Y24727D01*
X37351Y24703D01*
X37327Y24667D01*
X37318Y24624D01*
Y24524D01*
X37327Y24481D01*
X37351Y24444D01*
X37379Y24426D01*
Y22772D01*
X36961Y22355D01*
X36957Y22358D01*
X36857Y22399D01*
X36750Y22414D01*
X36643Y22399D01*
X36543Y22358D01*
X36458Y22292D01*
X36392Y22207D01*
X36351Y22107D01*
X36336Y22000D01*
X36351Y21893D01*
X36392Y21793D01*
X36458Y21708D01*
X36543Y21642D01*
X36643Y21601D01*
X36750Y21586D01*
X36857Y21601D01*
X36957Y21642D01*
X37042Y21708D01*
X37108Y21793D01*
X37149Y21893D01*
X37164Y22000D01*
X37149Y22107D01*
X37108Y22207D01*
X37105Y22211D01*
X37548Y22655D01*
X37563Y22654D01*
X37598Y22638D01*
Y21770D01*
X37319Y21491D01*
X37293Y21451D01*
X37283Y21405D01*
X37283Y21405D01*
Y21119D01*
X37275Y21114D01*
X37251Y21077D01*
X37243Y21034D01*
Y20934D01*
X37251Y20891D01*
X37275Y20855D01*
X37312Y20831D01*
X37331Y20827D01*
X37341Y20774D01*
X37291Y20740D01*
X37245Y20672D01*
X37237Y20632D01*
X37184Y20621D01*
X37158Y20662D01*
X37089Y20707D01*
X37008Y20724D01*
X36927Y20707D01*
X36858Y20662D01*
X36826Y20613D01*
X36777D01*
X36771Y20644D01*
X36747Y20680D01*
X36710Y20705D01*
X36667Y20713D01*
X36567D01*
X36524Y20705D01*
X36488Y20680D01*
X36464Y20644D01*
X36455Y20601D01*
Y20501D01*
X36464Y20458D01*
X36488Y20422D01*
X36520Y20401D01*
X36522Y20374D01*
X36520Y20347D01*
X36488Y20326D01*
X36464Y20290D01*
X36455Y20247D01*
Y20147D01*
X36464Y20104D01*
X36488Y20068D01*
X36524Y20043D01*
X36567Y20035D01*
X36667D01*
X36710Y20043D01*
X36747Y20068D01*
X36765Y20096D01*
X37047D01*
X37086Y20103D01*
X37119Y20125D01*
X37384Y20390D01*
X37441Y20379D01*
X37522Y20395D01*
X37548Y20413D01*
X37598Y20386D01*
Y19701D01*
X34516D01*
X34493Y19751D01*
X34526Y19801D01*
X34542Y19882D01*
X34526Y19963D01*
X34480Y20032D01*
X34412Y20077D01*
X34331Y20094D01*
X34250Y20077D01*
X34181Y20032D01*
X34135Y19963D01*
X34131Y19944D01*
X33891D01*
X33887Y19965D01*
X33863Y20001D01*
X33831Y20023D01*
X33828Y20049D01*
X33831Y20076D01*
X33863Y20097D01*
X33887Y20133D01*
X33896Y20176D01*
Y20276D01*
X33887Y20319D01*
X33863Y20356D01*
X33850Y20364D01*
X33849Y20367D01*
X33852Y20422D01*
X33876Y20438D01*
X33905Y20480D01*
X33913Y20522D01*
X33733D01*
Y20581D01*
X33674D01*
Y20760D01*
X33674Y20760D01*
X33635Y20792D01*
Y20915D01*
X33628Y20954D01*
X33606Y20986D01*
X33339Y21253D01*
X33306Y21275D01*
X33268Y21282D01*
X33095D01*
X33063Y21331D01*
X32994Y21377D01*
X32913Y21393D01*
X32832Y21377D01*
X32764Y21331D01*
X32718Y21262D01*
X32702Y21181D01*
X32718Y21100D01*
X32764Y21031D01*
X32832Y20986D01*
X32913Y20969D01*
X32984Y20983D01*
X33010Y20957D01*
X33017Y20943D01*
X32993Y20908D01*
X32977Y20827D01*
X32993Y20746D01*
X33039Y20677D01*
X33108Y20631D01*
X33171Y20619D01*
Y20531D01*
X33180Y20488D01*
X33204Y20451D01*
X33217Y20443D01*
X33218Y20440D01*
X33215Y20385D01*
X33191Y20369D01*
X33162Y20327D01*
X33154Y20285D01*
X33333D01*
Y20167D01*
X33154D01*
X33162Y20126D01*
X33191Y20084D01*
X33197Y20079D01*
Y20019D01*
X33191Y20015D01*
X33162Y19972D01*
X33154Y19931D01*
X33333D01*
Y19813D01*
X33154D01*
X33162Y19772D01*
X33176Y19751D01*
X33150Y19701D01*
X32452D01*
X32441Y19728D01*
Y23298D01*
X33255Y24111D01*
X33558D01*
X33590Y24063D01*
X33659Y24017D01*
X33740Y24001D01*
X33821Y24017D01*
X33868Y24048D01*
X33887Y24045D01*
X33921Y24026D01*
X33928Y23987D01*
X33958Y23942D01*
X33983Y23926D01*
Y23870D01*
X33958Y23853D01*
X33928Y23809D01*
X33918Y23756D01*
Y23720D01*
X34109D01*
X34301D01*
Y23756D01*
X34290Y23809D01*
X34261Y23853D01*
X34236Y23870D01*
Y23926D01*
X34261Y23942D01*
X34290Y23987D01*
X34301Y24039D01*
Y24075D01*
X34109D01*
Y24193D01*
X34350D01*
X34351Y24193D01*
X34498Y24046D01*
Y23661D01*
X34514Y23580D01*
X34516Y23577D01*
Y23157D01*
X34487Y23143D01*
X34466Y23138D01*
X34428Y23163D01*
X34387Y23172D01*
Y22992D01*
X34328D01*
Y22933D01*
X34148D01*
X34156Y22892D01*
X34185Y22849D01*
X34227Y22821D01*
X34228Y22821D01*
Y22770D01*
X34227Y22770D01*
X34185Y22741D01*
X34156Y22699D01*
X34148Y22657D01*
X34328D01*
Y22598D01*
X34387D01*
Y22419D01*
X34428Y22427D01*
X34466Y22453D01*
X34487Y22447D01*
X34516Y22434D01*
Y22337D01*
X34458Y22292D01*
X34392Y22207D01*
X34351Y22107D01*
X34336Y22000D01*
X34351Y21893D01*
X34392Y21793D01*
X34458Y21708D01*
X34543Y21642D01*
X34643Y21601D01*
X34750Y21586D01*
X34857Y21601D01*
X34957Y21642D01*
X35042Y21708D01*
X35108Y21793D01*
X35149Y21893D01*
X35164Y22000D01*
X35149Y22107D01*
X35108Y22207D01*
X35042Y22292D01*
X34957Y22358D01*
X34939Y22365D01*
Y22762D01*
X34946Y22795D01*
X34939Y22829D01*
Y22992D01*
Y23528D01*
X34989Y23555D01*
X35012Y23539D01*
X35054Y23531D01*
X35056Y23529D01*
X35073Y23476D01*
X35041Y23427D01*
X35025Y23346D01*
X35041Y23265D01*
X35087Y23197D01*
X35155Y23151D01*
X35236Y23135D01*
X35317Y23151D01*
X35379Y23192D01*
X35586Y22986D01*
Y22945D01*
X35594Y22902D01*
X35619Y22866D01*
X35655Y22842D01*
X35698Y22833D01*
X35798D01*
X35841Y22842D01*
X35877Y22866D01*
X35902Y22902D01*
X35910Y22945D01*
Y23045D01*
X35902Y23088D01*
X35877Y23125D01*
X35841Y23149D01*
X35798Y23157D01*
X35758D01*
X35483Y23432D01*
X35443Y23459D01*
X35438Y23473D01*
X35473Y23523D01*
X36831D01*
X36912Y23539D01*
X36956Y23569D01*
X36971Y23572D01*
X37009Y23597D01*
X37034Y23635D01*
X37035Y23640D01*
X37052Y23657D01*
X37098Y23726D01*
X37114Y23807D01*
Y24134D01*
Y24418D01*
X37125Y24434D01*
X37141Y24515D01*
Y24873D01*
X37268Y25000D01*
X37318Y24980D01*
D02*
G37*
G36*
X37714Y43249D02*
X37669Y43191D01*
X37631Y43099D01*
X37626Y43059D01*
X38000D01*
Y43000D01*
X38059D01*
Y42626D01*
X38099Y42631D01*
X38191Y42669D01*
X38249Y42714D01*
X38299Y42689D01*
Y42441D01*
X37598D01*
Y40624D01*
X37548Y40590D01*
X37528Y40594D01*
X37528Y40594D01*
X37199D01*
X37195Y40644D01*
X37213Y40647D01*
X37259Y40678D01*
X37289Y40724D01*
X37300Y40778D01*
Y40779D01*
X36969D01*
X36637D01*
Y40778D01*
X36648Y40724D01*
X36678Y40678D01*
X36724Y40647D01*
X36742Y40644D01*
X36737Y40594D01*
X36584D01*
X36554Y40633D01*
X36554Y40644D01*
X36568Y40750D01*
X36554Y40858D01*
X36512Y40959D01*
X36446Y41045D01*
X36359Y41112D01*
X36258Y41154D01*
X36150Y41168D01*
X36042Y41154D01*
X35941Y41112D01*
X35854Y41045D01*
X35824Y41005D01*
X35774Y41022D01*
Y41154D01*
X35932Y41313D01*
X36181D01*
X36227Y41332D01*
X36231Y41343D01*
X36258Y41346D01*
X36359Y41388D01*
X36446Y41455D01*
X36512Y41541D01*
X36554Y41642D01*
X36568Y41750D01*
X36554Y41858D01*
X36512Y41959D01*
X36446Y42045D01*
X36359Y42112D01*
X36258Y42154D01*
X36150Y42168D01*
X36048Y42154D01*
X35794Y42408D01*
X35748Y42427D01*
X35630Y42427D01*
X35236D01*
X35190Y42408D01*
X35171Y42362D01*
Y40617D01*
X34973Y40419D01*
X34548D01*
Y40620D01*
X34542Y40651D01*
X34524Y40677D01*
X34498Y40695D01*
X34490Y40697D01*
Y40750D01*
X34490Y40750D01*
X34481Y40796D01*
X34454Y40835D01*
X34454Y40835D01*
X34445Y40845D01*
X34406Y40871D01*
X34359Y40880D01*
X34359Y40880D01*
X34093D01*
X34073Y40930D01*
X34409Y41267D01*
X34467D01*
X34498Y41273D01*
X34524Y41291D01*
X34542Y41318D01*
X34548Y41349D01*
Y41421D01*
X34564Y41445D01*
X34580Y41526D01*
X34564Y41607D01*
X34548Y41630D01*
Y41702D01*
X34542Y41734D01*
X34524Y41760D01*
X34498Y41778D01*
X34467Y41784D01*
X34415D01*
X34414Y41834D01*
X34469Y41845D01*
X34515Y41875D01*
X34545Y41921D01*
X34556Y41975D01*
Y42106D01*
X34354D01*
Y42224D01*
X34556D01*
Y42355D01*
X34545Y42409D01*
X34515Y42455D01*
Y42505D01*
X34545Y42551D01*
X34556Y42605D01*
Y42736D01*
X34354D01*
X34153D01*
Y42605D01*
X34164Y42551D01*
X34194Y42505D01*
Y42455D01*
X34164Y42409D01*
X34153Y42355D01*
Y42162D01*
X34103Y42141D01*
X33929Y42315D01*
X33861Y42361D01*
X33846Y42364D01*
Y42795D01*
X33830Y42876D01*
X33817Y42896D01*
Y42985D01*
X33808Y43032D01*
X33781Y43072D01*
X33741Y43098D01*
X33694Y43108D01*
X33622D01*
X33579Y43150D01*
X33511Y43196D01*
X33430Y43212D01*
X32292D01*
X32263Y43250D01*
X32275Y43299D01*
X37689D01*
X37714Y43249D01*
D02*
G37*
G36*
X37598Y29691D02*
Y28898D01*
X37252Y28551D01*
X37206Y28483D01*
X37190Y28402D01*
Y28199D01*
X37140Y28194D01*
X37125Y28270D01*
X37079Y28339D01*
X37010Y28385D01*
X36929Y28401D01*
X36871Y28389D01*
X36846Y28435D01*
X37473Y29062D01*
X37495Y29095D01*
X37503Y29134D01*
Y29655D01*
X37531Y29674D01*
X37548Y29700D01*
X37598Y29691D01*
D02*
G37*
G36*
X33107Y29832D02*
Y29180D01*
X33099Y29179D01*
X33099Y29179D01*
X33049Y29158D01*
X33049Y29158D01*
X32997Y29123D01*
X32962Y29071D01*
X32950Y29010D01*
X32950Y27913D01*
X32962Y27852D01*
X32997Y27800D01*
X33049Y27765D01*
X33110Y27753D01*
X35149Y27753D01*
X35164Y27703D01*
X35114Y27669D01*
X35068Y27601D01*
X35052Y27520D01*
X35057Y27494D01*
X35012Y27466D01*
X34957Y27508D01*
X34857Y27549D01*
X34750Y27564D01*
X34643Y27549D01*
X34543Y27508D01*
X34458Y27442D01*
X34392Y27357D01*
X34351Y27257D01*
X34336Y27150D01*
X34351Y27043D01*
X34392Y26943D01*
X34458Y26858D01*
X34507Y26820D01*
X34511Y26809D01*
X34509Y26755D01*
X34271Y26517D01*
X34226Y26543D01*
X34211Y26616D01*
X34165Y26685D01*
X34097Y26731D01*
X34016Y26747D01*
X33970Y26738D01*
X33946Y26733D01*
X33931Y26781D01*
X33957Y26792D01*
X34042Y26858D01*
X34108Y26943D01*
X34149Y27043D01*
X34164Y27150D01*
X34149Y27257D01*
X34108Y27357D01*
X34042Y27442D01*
X33957Y27508D01*
X33857Y27549D01*
X33750Y27564D01*
X33643Y27549D01*
X33543Y27508D01*
X33458Y27442D01*
X33392Y27357D01*
X33351Y27257D01*
X33336Y27150D01*
X33351Y27043D01*
X33392Y26943D01*
X33458Y26858D01*
X33543Y26792D01*
X33643Y26751D01*
X33750Y26736D01*
X33857Y26751D01*
X33902Y26769D01*
X33925Y26725D01*
X33905Y26711D01*
X33866Y26685D01*
X33834Y26637D01*
X32535D01*
X32497Y26629D01*
X32491Y26625D01*
X32441Y26652D01*
Y28386D01*
X31701D01*
Y28689D01*
X31751Y28714D01*
X31809Y28669D01*
X31901Y28631D01*
X31941Y28626D01*
Y29000D01*
Y29374D01*
X31901Y29369D01*
X31809Y29331D01*
X31751Y29286D01*
X31701Y29311D01*
Y29567D01*
X32283D01*
X32402Y29685D01*
Y30466D01*
X32452Y30487D01*
X33107Y29832D01*
D02*
G37*
G36*
X36575Y29055D02*
X36097Y28577D01*
X36051Y28602D01*
X36060Y28646D01*
X36042Y28736D01*
X35990Y28813D01*
X35913Y28864D01*
X35837Y28880D01*
Y28931D01*
X35906Y28945D01*
X35977Y28992D01*
X36024Y29062D01*
X36041Y29146D01*
X36024Y29229D01*
X35977Y29300D01*
X35906Y29347D01*
X35823Y29363D01*
X35516D01*
X35432Y29347D01*
X35362Y29300D01*
X35315Y29229D01*
X35298Y29146D01*
X35315Y29062D01*
X35362Y28992D01*
X35432Y28945D01*
X35502Y28931D01*
Y28880D01*
X35425Y28864D01*
X35348Y28813D01*
X35297Y28736D01*
X35291Y28705D01*
X35669D01*
Y28646D01*
X35728D01*
Y28409D01*
X35823D01*
X35866Y28418D01*
X35891Y28371D01*
X35433Y27913D01*
X33110Y27913D01*
X33110Y29010D01*
X33160Y29030D01*
X33359Y28831D01*
X33359Y28831D01*
X33398Y28805D01*
X33442Y28796D01*
X33448Y28788D01*
X33456Y28783D01*
Y28704D01*
X33448Y28699D01*
X33424Y28662D01*
X33415Y28619D01*
Y28519D01*
X33424Y28476D01*
X33448Y28440D01*
X33484Y28416D01*
X33527Y28407D01*
X33627D01*
X33670Y28416D01*
X33706Y28440D01*
X33731Y28476D01*
X33739Y28519D01*
Y28530D01*
X33786Y28559D01*
X33789Y28559D01*
X33834Y28492D01*
X33905Y28445D01*
X33988Y28428D01*
X34295D01*
X34379Y28445D01*
X34449Y28492D01*
X34496Y28562D01*
X34513Y28646D01*
X34496Y28729D01*
X34449Y28800D01*
X34379Y28847D01*
X34295Y28863D01*
X33988D01*
X33905Y28847D01*
X33834Y28800D01*
X33787Y28729D01*
X33779Y28687D01*
X33729Y28678D01*
X33699Y28710D01*
Y28783D01*
X33706Y28788D01*
X33731Y28824D01*
X33739Y28867D01*
Y28967D01*
X33731Y29010D01*
X33706Y29047D01*
X33670Y29071D01*
X33627Y29079D01*
X33527D01*
X33484Y29071D01*
X33471Y29062D01*
X33350Y29184D01*
Y29542D01*
X33400Y29557D01*
X33427Y29516D01*
X33441Y29502D01*
X33448Y29447D01*
X33424Y29410D01*
X33415Y29367D01*
Y29267D01*
X33424Y29224D01*
X33448Y29188D01*
X33484Y29164D01*
X33527Y29155D01*
X33627D01*
X33670Y29164D01*
X33706Y29188D01*
X33734Y29183D01*
X33770Y29146D01*
X33787Y29062D01*
X33834Y28992D01*
X33905Y28945D01*
X33988Y28928D01*
X34295D01*
X34379Y28945D01*
X34449Y28992D01*
X34496Y29062D01*
X34513Y29146D01*
X34496Y29229D01*
X34449Y29300D01*
X34379Y29347D01*
X34295Y29363D01*
X34129D01*
X34120Y29378D01*
X34146Y29428D01*
X34295D01*
X34326Y29434D01*
X34642D01*
X34723Y29450D01*
X34791Y29496D01*
X34846Y29550D01*
X34906Y29538D01*
X34989Y29555D01*
X35000Y29563D01*
X35032Y29524D01*
X34820Y29311D01*
X34793Y29272D01*
X34784Y29225D01*
X34784Y29225D01*
Y28711D01*
X34752Y28689D01*
X34704Y28619D01*
X34688Y28535D01*
Y28228D01*
X34704Y28145D01*
X34752Y28074D01*
X34822Y28027D01*
X34906Y28011D01*
X34989Y28027D01*
X35059Y28074D01*
X35107Y28145D01*
X35123Y28228D01*
Y28535D01*
X35107Y28619D01*
X35059Y28689D01*
X35027Y28711D01*
Y29175D01*
X35297Y29445D01*
X35297Y29445D01*
X35315Y29472D01*
X35328Y29477D01*
X35361Y29484D01*
X35372Y29484D01*
X35374Y29484D01*
X35432Y29445D01*
X35516Y29428D01*
X35823D01*
X35906Y29445D01*
X35977Y29492D01*
X36024Y29562D01*
X36041Y29646D01*
X36024Y29729D01*
X35977Y29800D01*
X35906Y29847D01*
X35823Y29863D01*
X35516D01*
X35435Y29847D01*
X35432Y29850D01*
X35414Y29897D01*
X35507Y29990D01*
X36038D01*
X36038Y29990D01*
X36084Y29999D01*
X36124Y30026D01*
X36267Y30169D01*
X36267Y30169D01*
X36293Y30208D01*
X36302Y30255D01*
Y30679D01*
X36302Y30679D01*
X36299Y30698D01*
X36334Y30748D01*
X36575D01*
X36575Y29055D01*
D02*
G37*
G36*
X36336Y26159D02*
Y26108D01*
X36319D01*
X36273Y26089D01*
X36254Y26043D01*
Y25610D01*
X36273Y25564D01*
X36319Y25545D01*
X36555D01*
X36601Y25564D01*
X36620Y25610D01*
Y26043D01*
X36601Y26089D01*
X36555Y26108D01*
X36538D01*
Y26159D01*
X36588Y26208D01*
X36656Y26222D01*
X36691Y26245D01*
X36747Y26222D01*
X36753Y26189D01*
X36780Y26149D01*
X36765Y26089D01*
X36765D01*
X36765Y26089D01*
X36746Y26043D01*
Y25610D01*
X36765Y25564D01*
X36811Y25545D01*
X37047D01*
X37093Y25564D01*
X37112Y25610D01*
Y26043D01*
X37093Y26089D01*
X37110Y26137D01*
X37140Y26182D01*
X37167Y26181D01*
X37190Y26174D01*
Y25521D01*
X36911Y25242D01*
X36811D01*
X36765Y25223D01*
X36746Y25177D01*
Y25060D01*
X36734Y25042D01*
X36717Y24961D01*
Y24607D01*
X36669Y24599D01*
X36667Y24599D01*
X36646Y24631D01*
X36632Y24640D01*
X36614Y24683D01*
X36622Y24702D01*
X36629Y24713D01*
X36635Y24744D01*
Y24902D01*
X36239D01*
Y24744D01*
X36245Y24713D01*
X36262Y24687D01*
X36288Y24670D01*
X36319Y24664D01*
X36326D01*
X36348Y24614D01*
X36331Y24588D01*
X36323Y24547D01*
X36503D01*
Y24429D01*
X36323D01*
X36331Y24388D01*
X36360Y24345D01*
X36366Y24341D01*
Y24281D01*
X36360Y24277D01*
X36331Y24234D01*
X36323Y24193D01*
X36503D01*
Y24075D01*
X36323D01*
X36331Y24034D01*
X36356Y23997D01*
X36350Y23972D01*
X36336Y23947D01*
X35809D01*
X35782Y23997D01*
X35784Y23998D01*
X35792Y24041D01*
Y24141D01*
X35784Y24184D01*
X35759Y24221D01*
X35723Y24245D01*
X35680Y24253D01*
X35580D01*
X35537Y24245D01*
X35501Y24221D01*
X35479Y24188D01*
X35465Y24184D01*
X35425Y24185D01*
X35386Y24244D01*
X35317Y24290D01*
X35236Y24306D01*
X35219Y24303D01*
X35180Y24334D01*
Y25842D01*
X35220Y25868D01*
X35270Y25853D01*
Y25610D01*
X35289Y25564D01*
X35298Y25506D01*
X35277Y25475D01*
X35261Y25394D01*
X35277Y25313D01*
X35298Y25281D01*
X35289Y25223D01*
X35270Y25177D01*
Y24744D01*
X35289Y24698D01*
X35335Y24679D01*
X35351D01*
Y24669D01*
X35359Y24630D01*
X35381Y24597D01*
X35468Y24510D01*
Y24441D01*
X35476Y24398D01*
X35501Y24362D01*
X35537Y24338D01*
X35580Y24329D01*
X35680D01*
X35723Y24338D01*
X35759Y24362D01*
X35784Y24398D01*
X35792Y24441D01*
Y24541D01*
X35784Y24584D01*
X35759Y24621D01*
X35723Y24645D01*
X35680Y24653D01*
X35637D01*
X35619Y24703D01*
X35636Y24744D01*
Y25177D01*
X35617Y25223D01*
X35638Y25267D01*
X35668Y25313D01*
X35684Y25394D01*
X35668Y25475D01*
X35638Y25520D01*
X35617Y25564D01*
X35636Y25610D01*
Y26043D01*
X35617Y26089D01*
X35606Y26094D01*
X35611Y26146D01*
X35611Y26146D01*
X35648Y26170D01*
X35672Y26206D01*
X35681Y26249D01*
Y26349D01*
X35694Y26364D01*
X35713D01*
X35756Y26319D01*
Y26249D01*
X35765Y26206D01*
X35789Y26170D01*
X35817Y26151D01*
Y26104D01*
X35781Y26089D01*
X35762Y26043D01*
Y25610D01*
X35781Y25564D01*
X35827Y25545D01*
X36063D01*
X36109Y25564D01*
X36128Y25610D01*
Y26043D01*
X36109Y26089D01*
X36063Y26108D01*
X36041D01*
X36030Y26158D01*
X36048Y26170D01*
X36072Y26206D01*
X36081Y26249D01*
Y26343D01*
X36095Y26354D01*
X36128Y26366D01*
X36336Y26159D01*
D02*
G37*
G36*
X34977Y25798D02*
Y24252D01*
X34985Y24213D01*
X34946Y24181D01*
X34889Y24238D01*
X34876Y24259D01*
X34873Y24274D01*
X34847Y24312D01*
X34809Y24337D01*
X34805Y24338D01*
X34596Y24546D01*
X34619Y24594D01*
X34687Y24608D01*
X34756Y24653D01*
X34802Y24722D01*
X34818Y24803D01*
X34802Y24884D01*
X34756Y24953D01*
X34704Y24987D01*
X34700Y25009D01*
X34678Y25042D01*
X34553Y25167D01*
Y25226D01*
X34538Y25263D01*
X34545Y25268D01*
X34562Y25294D01*
X34567Y25315D01*
X34233D01*
X34237Y25294D01*
X34237Y25293D01*
X34204Y25253D01*
X34183Y25262D01*
X34085D01*
X34048Y25246D01*
X34043Y25254D01*
X34017Y25271D01*
X33996Y25275D01*
Y25108D01*
X33878D01*
Y25275D01*
X33857Y25271D01*
X33839Y25259D01*
X33820Y25271D01*
X33799Y25275D01*
Y25108D01*
X33681D01*
Y25275D01*
X33660Y25271D01*
X33659Y25271D01*
X33620Y25303D01*
X33626Y25319D01*
X33628Y25325D01*
Y25423D01*
X33609Y25469D01*
X33609Y25476D01*
X33628Y25522D01*
Y25620D01*
X33626Y25625D01*
X33610Y25669D01*
X33611Y25671D01*
X33657Y25697D01*
X33691Y25683D01*
X33789D01*
X33795Y25685D01*
X33839Y25701D01*
X33882Y25685D01*
X33888Y25683D01*
X33986D01*
X33992Y25685D01*
X34035Y25701D01*
X34079Y25685D01*
X34085Y25683D01*
X34183D01*
X34203Y25691D01*
X34205Y25691D01*
X34237Y25651D01*
X34237Y25651D01*
X34233Y25630D01*
X34400D01*
Y25512D01*
X34233D01*
X34237Y25491D01*
X34249Y25472D01*
X34237Y25454D01*
X34233Y25433D01*
X34567D01*
X34562Y25454D01*
X34550Y25472D01*
X34562Y25491D01*
X34568Y25522D01*
Y25576D01*
X34617Y25624D01*
X34629Y25624D01*
X34634Y25616D01*
X34671Y25591D01*
X34714Y25583D01*
X34814D01*
X34857Y25591D01*
X34893Y25616D01*
X34917Y25652D01*
X34926Y25695D01*
Y25768D01*
X34974Y25799D01*
X34977Y25798D01*
D02*
G37*
G36*
X33866Y26386D02*
X33935Y26340D01*
X34009Y26325D01*
X34034Y26280D01*
X33865Y26111D01*
X33843Y26078D01*
X33836Y26040D01*
Y26025D01*
X33789Y25990D01*
X33730D01*
X33704Y26017D01*
X33671Y26038D01*
X33632Y26046D01*
X33228D01*
X33190Y26038D01*
X33157Y26017D01*
X33039Y25898D01*
X33017Y25866D01*
X33009Y25827D01*
Y25742D01*
X32981Y25723D01*
X32962Y25695D01*
X32594D01*
X32555Y25687D01*
X32522Y25665D01*
X32487Y25630D01*
X32441Y25650D01*
Y26298D01*
X32577Y26434D01*
X33834D01*
X33866Y26386D01*
D02*
G37*
G36*
X33423Y42708D02*
Y42165D01*
X33439Y42084D01*
X33452Y42065D01*
Y41975D01*
X33461Y41929D01*
X33488Y41889D01*
X33528Y41862D01*
X33574Y41853D01*
X33694D01*
X33724Y41821D01*
X33688Y41784D01*
X33522D01*
X33491Y41778D01*
X33465Y41760D01*
X33447Y41734D01*
X33441Y41702D01*
Y41661D01*
X33181D01*
X33178Y41661D01*
X33078D01*
X33035Y41653D01*
X32999Y41629D01*
X32975Y41592D01*
X32966Y41549D01*
Y41449D01*
X32975Y41406D01*
X32999Y41370D01*
X33035Y41346D01*
X33078Y41337D01*
X33178D01*
X33181Y41338D01*
X33443D01*
X33447Y41318D01*
X33465Y41291D01*
X33482Y41279D01*
X33489Y41243D01*
X33488Y41223D01*
X33472Y41213D01*
X33356Y41096D01*
X33310Y41115D01*
Y41149D01*
X33300Y41199D01*
X33271Y41242D01*
X33229Y41270D01*
X33187Y41279D01*
Y41099D01*
X33128D01*
Y41040D01*
X32949D01*
X32957Y40999D01*
X32986Y40956D01*
X33028Y40928D01*
X33078Y40918D01*
X33112D01*
X33131Y40872D01*
X33079Y40819D01*
X33033Y40750D01*
X33017Y40669D01*
Y40148D01*
X33033Y40067D01*
X33079Y39998D01*
X33130Y39946D01*
X33120Y39926D01*
Y39508D01*
X33002D01*
Y39897D01*
X32958Y39891D01*
X32888Y39862D01*
X32838Y39892D01*
Y42362D01*
X32838Y42362D01*
X32826Y42424D01*
X32791Y42476D01*
X32791Y42476D01*
X32673Y42594D01*
X32620Y42629D01*
X32559Y42641D01*
X32559Y42641D01*
X32202D01*
X32191Y42665D01*
X32189Y42691D01*
X32257Y42743D01*
X32291Y42788D01*
X33342D01*
X33423Y42708D01*
D02*
G37*
%LPC*%
G36*
X35197Y31998D02*
X35087D01*
Y31870D01*
X35094Y31832D01*
X35116Y31799D01*
X35148Y31777D01*
X35187Y31770D01*
X35197D01*
Y31998D01*
D02*
G37*
G36*
X36557Y32343D02*
X36437D01*
Y32222D01*
X36478Y32230D01*
X36521Y32259D01*
X36549Y32301D01*
X36557Y32343D01*
D02*
G37*
G36*
X35837Y32344D02*
X35827D01*
Y32116D01*
X35937D01*
Y32244D01*
X35929Y32283D01*
X35908Y32315D01*
X35875Y32337D01*
X35837Y32344D01*
D02*
G37*
G36*
X35197D02*
X35187D01*
X35148Y32337D01*
X35116Y32315D01*
X35094Y32283D01*
X35087Y32244D01*
Y32116D01*
X35197D01*
Y32344D01*
D02*
G37*
G36*
X37159Y39172D02*
X37028D01*
Y39030D01*
X37300D01*
Y39031D01*
X37289Y39085D01*
X37259Y39131D01*
X37213Y39161D01*
X37159Y39172D01*
D02*
G37*
G36*
X36909D02*
X36779D01*
X36724Y39161D01*
X36678Y39131D01*
X36648Y39085D01*
X36637Y39031D01*
Y39030D01*
X36909D01*
Y39172D01*
D02*
G37*
G36*
X34335Y38853D02*
X34287Y38843D01*
X34243Y38813D01*
X34214Y38769D01*
X34203Y38717D01*
Y38681D01*
X34335D01*
Y38853D01*
D02*
G37*
G36*
X36579Y38691D02*
X36209D01*
Y38321D01*
X36263Y38328D01*
X36368Y38372D01*
X36459Y38441D01*
X36528Y38532D01*
X36572Y38637D01*
X36579Y38691D01*
D02*
G37*
G36*
X36091D02*
X35721D01*
X35728Y38637D01*
X35772Y38532D01*
X35841Y38441D01*
X35932Y38372D01*
X36037Y38328D01*
X36091Y38321D01*
Y38691D01*
D02*
G37*
G36*
X36909Y38912D02*
X36637D01*
Y38911D01*
X36648Y38857D01*
X36678Y38811D01*
X36724Y38780D01*
X36779Y38769D01*
X36909D01*
Y38912D01*
D02*
G37*
G36*
X36209Y39179D02*
Y38809D01*
X36579D01*
X36572Y38863D01*
X36528Y38968D01*
X36459Y39059D01*
X36368Y39128D01*
X36263Y39172D01*
X36209Y39179D01*
D02*
G37*
G36*
X36091D02*
X36037Y39172D01*
X35932Y39128D01*
X35841Y39059D01*
X35772Y38968D01*
X35728Y38863D01*
X35721Y38809D01*
X36091D01*
Y39179D01*
D02*
G37*
G36*
X37300Y38912D02*
X37028D01*
Y38769D01*
X37159D01*
X37213Y38780D01*
X37259Y38811D01*
X37289Y38857D01*
X37300Y38911D01*
Y38912D01*
D02*
G37*
G36*
X36209Y38179D02*
Y37809D01*
X36579D01*
X36572Y37863D01*
X36528Y37968D01*
X36459Y38059D01*
X36368Y38128D01*
X36263Y38172D01*
X36209Y38179D01*
D02*
G37*
G36*
X34843Y34278D02*
X34664D01*
Y34065D01*
X34763D01*
X34793Y34071D01*
X34819Y34089D01*
X34837Y34115D01*
X34843Y34145D01*
Y34278D01*
D02*
G37*
G36*
X34546D02*
X34367D01*
Y34145D01*
X34373Y34115D01*
X34390Y34089D01*
X34416Y34071D01*
X34447Y34065D01*
X34546D01*
Y34278D01*
D02*
G37*
G36*
X36201Y33152D02*
X36102D01*
Y32939D01*
X36281D01*
Y33071D01*
X36275Y33102D01*
X36258Y33128D01*
X36232Y33145D01*
X36201Y33152D01*
D02*
G37*
G36*
X36319Y34507D02*
Y34387D01*
X36439D01*
X36431Y34428D01*
X36403Y34470D01*
X36360Y34499D01*
X36319Y34507D01*
D02*
G37*
G36*
X35807Y34669D02*
X35687D01*
X35695Y34627D01*
X35723Y34585D01*
X35766Y34556D01*
X35807Y34548D01*
Y34669D01*
D02*
G37*
G36*
X34763Y34608D02*
X34664D01*
Y34396D01*
X34843D01*
Y34528D01*
X34837Y34559D01*
X34819Y34585D01*
X34793Y34602D01*
X34763Y34608D01*
D02*
G37*
G36*
X34546D02*
X34447D01*
X34416Y34602D01*
X34390Y34585D01*
X34373Y34559D01*
X34367Y34528D01*
Y34396D01*
X34546D01*
Y34608D01*
D02*
G37*
G36*
X36437Y32581D02*
Y32461D01*
X36557D01*
X36549Y32502D01*
X36521Y32544D01*
X36478Y32573D01*
X36437Y32581D01*
D02*
G37*
G36*
X36319Y32581D02*
X36278Y32573D01*
X36235Y32544D01*
X36207Y32502D01*
X36198Y32461D01*
X36319D01*
Y32581D01*
D02*
G37*
G36*
Y32343D02*
X36198D01*
X36207Y32301D01*
X36235Y32259D01*
X36278Y32230D01*
X36319Y32222D01*
Y32343D01*
D02*
G37*
G36*
X34715Y32998D02*
X34459D01*
X34413Y32979D01*
X34394Y32933D01*
Y32559D01*
X34413Y32513D01*
X34459Y32494D01*
X34715D01*
X34760Y32513D01*
X34780Y32559D01*
Y32933D01*
X34760Y32979D01*
X34715Y32998D01*
D02*
G37*
G36*
X35984Y33152D02*
X35885D01*
X35855Y33145D01*
X35829Y33128D01*
X35811Y33102D01*
X35805Y33071D01*
Y32939D01*
X35984D01*
Y33152D01*
D02*
G37*
G36*
X36281Y32821D02*
X36102D01*
Y32608D01*
X36201D01*
X36232Y32614D01*
X36258Y32632D01*
X36275Y32658D01*
X36281Y32689D01*
Y32821D01*
D02*
G37*
G36*
X35984D02*
X35805D01*
Y32689D01*
X35811Y32658D01*
X35829Y32632D01*
X35855Y32614D01*
X35885Y32608D01*
X35984D01*
Y32821D01*
D02*
G37*
G36*
X34335Y37146D02*
X34203D01*
Y37110D01*
X34214Y37058D01*
X34243Y37013D01*
X34287Y36984D01*
X34335Y36974D01*
Y37146D01*
D02*
G37*
G36*
X36091Y38179D02*
X36037Y38172D01*
X35932Y38128D01*
X35841Y38059D01*
X35772Y37968D01*
X35728Y37863D01*
X35721Y37809D01*
X36091D01*
Y38179D01*
D02*
G37*
G36*
X36579Y37691D02*
X36209D01*
Y37321D01*
X36263Y37328D01*
X36368Y37372D01*
X36459Y37441D01*
X36528Y37532D01*
X36572Y37637D01*
X36579Y37691D01*
D02*
G37*
G36*
X36091D02*
X35721D01*
X35728Y37637D01*
X35772Y37532D01*
X35841Y37441D01*
X35932Y37372D01*
X36037Y37328D01*
X36091Y37321D01*
Y37691D01*
D02*
G37*
G36*
X35925Y34907D02*
Y34787D01*
X36046D01*
X36037Y34828D01*
X36009Y34870D01*
X35966Y34899D01*
X35925Y34907D01*
D02*
G37*
G36*
X35807Y34907D02*
X35766Y34899D01*
X35723Y34870D01*
X35695Y34828D01*
X35687Y34787D01*
X35807D01*
Y34907D01*
D02*
G37*
G36*
X36046Y34669D02*
X35925D01*
Y34548D01*
X35966Y34556D01*
X36009Y34585D01*
X36037Y34627D01*
X36046Y34669D01*
D02*
G37*
G36*
X34733Y35911D02*
X34477D01*
X34431Y35892D01*
X34412Y35846D01*
Y35472D01*
X34431Y35427D01*
X34477Y35408D01*
X34733D01*
X34779Y35427D01*
X34798Y35472D01*
Y35846D01*
X34779Y35892D01*
X34733Y35911D01*
D02*
G37*
G36*
X34454Y38853D02*
Y38622D01*
X34394D01*
Y38563D01*
X34203D01*
Y38527D01*
X34214Y38475D01*
X34243Y38431D01*
X34268Y38414D01*
Y38358D01*
X34243Y38341D01*
X34214Y38297D01*
X34203Y38245D01*
Y38209D01*
X34394D01*
Y38091D01*
X34203D01*
Y38055D01*
X34214Y38002D01*
X34243Y37958D01*
X34268Y37941D01*
Y37885D01*
X34243Y37869D01*
X34214Y37824D01*
X34203Y37772D01*
Y37736D01*
X34394D01*
Y37618D01*
X34203D01*
Y37582D01*
X34214Y37530D01*
X34243Y37486D01*
X34268Y37469D01*
Y37413D01*
X34243Y37396D01*
X34214Y37352D01*
X34203Y37300D01*
Y37264D01*
X34394D01*
Y37205D01*
X34454D01*
Y36974D01*
X34502Y36984D01*
X34546Y37013D01*
X34568Y37046D01*
X34583Y37050D01*
X34608D01*
X34623Y37046D01*
X34645Y37013D01*
X34690Y36984D01*
X34738Y36974D01*
Y37205D01*
X34797D01*
Y37264D01*
X34988D01*
Y37300D01*
X34978Y37352D01*
X34948Y37396D01*
X34923Y37413D01*
Y37469D01*
X34948Y37486D01*
X34978Y37530D01*
X34988Y37582D01*
Y37618D01*
X34797D01*
Y37736D01*
X34988D01*
Y37772D01*
X34978Y37824D01*
X34948Y37869D01*
X34923Y37885D01*
Y37941D01*
X34948Y37958D01*
X34978Y38002D01*
X34988Y38055D01*
Y38091D01*
X34797D01*
Y38209D01*
X34988D01*
Y38245D01*
X34978Y38297D01*
X34948Y38341D01*
X34923Y38358D01*
Y38414D01*
X34948Y38431D01*
X34978Y38475D01*
X34988Y38527D01*
Y38563D01*
X34797D01*
Y38622D01*
X34738D01*
Y38853D01*
X34690Y38843D01*
X34645Y38813D01*
X34623Y38781D01*
X34608Y38777D01*
X34583D01*
X34568Y38781D01*
X34546Y38813D01*
X34502Y38843D01*
X34454Y38853D01*
D02*
G37*
G36*
X33192Y24705D02*
X33072D01*
Y24584D01*
X33113Y24593D01*
X33155Y24621D01*
X33184Y24664D01*
X33192Y24705D01*
D02*
G37*
G36*
X32954D02*
X32833D01*
X32841Y24664D01*
X32870Y24621D01*
X32912Y24593D01*
X32954Y24584D01*
Y24705D01*
D02*
G37*
G36*
X33072Y24943D02*
Y24823D01*
X33192D01*
X33184Y24864D01*
X33155Y24907D01*
X33113Y24935D01*
X33072Y24943D01*
D02*
G37*
G36*
X32954D02*
X32912Y24935D01*
X32870Y24907D01*
X32841Y24864D01*
X32833Y24823D01*
X32954D01*
Y24943D01*
D02*
G37*
G36*
X34460Y30635D02*
X34419Y30627D01*
X34376Y30599D01*
X34348Y30556D01*
X34339Y30515D01*
X34460D01*
Y30635D01*
D02*
G37*
G36*
Y30397D02*
X34339D01*
X34348Y30356D01*
X34376Y30313D01*
X34419Y30285D01*
X34460Y30276D01*
Y30397D01*
D02*
G37*
G36*
X33636Y30245D02*
Y30124D01*
X33757D01*
X33748Y30166D01*
X33720Y30208D01*
X33677Y30237D01*
X33636Y30245D01*
D02*
G37*
G36*
X33518D02*
X33477Y30237D01*
X33434Y30208D01*
X33406Y30166D01*
X33398Y30124D01*
X33518D01*
Y30245D01*
D02*
G37*
G36*
X32374Y41941D02*
X32059D01*
Y41626D01*
X32099Y41631D01*
X32191Y41669D01*
X32270Y41730D01*
X32331Y41809D01*
X32369Y41901D01*
X32374Y41941D01*
D02*
G37*
G36*
X32059Y42374D02*
Y42059D01*
X32374D01*
X32369Y42099D01*
X32331Y42191D01*
X32270Y42270D01*
X32191Y42331D01*
X32099Y42369D01*
X32059Y42374D01*
D02*
G37*
G36*
X33091Y37181D02*
Y37061D01*
X33211D01*
X33203Y37102D01*
X33174Y37144D01*
X33132Y37173D01*
X33091Y37181D01*
D02*
G37*
G36*
X32579D02*
X32538Y37173D01*
X32495Y37144D01*
X32467Y37102D01*
X32458Y37061D01*
X32579D01*
Y37181D01*
D02*
G37*
G36*
X32972D02*
X32931Y37173D01*
X32889Y37144D01*
X32860Y37102D01*
X32860Y37101D01*
X32809D01*
X32809Y37102D01*
X32781Y37144D01*
X32738Y37173D01*
X32697Y37181D01*
Y37002D01*
Y36822D01*
X32738Y36830D01*
X32781Y36859D01*
X32809Y36901D01*
X32809Y36902D01*
X32860D01*
X32860Y36901D01*
X32889Y36859D01*
X32931Y36830D01*
X32972Y36822D01*
Y37002D01*
Y37181D01*
D02*
G37*
G36*
X33211Y36943D02*
X33091D01*
Y36822D01*
X33132Y36830D01*
X33174Y36859D01*
X33203Y36901D01*
X33211Y36943D01*
D02*
G37*
G36*
X32579D02*
X32458D01*
X32467Y36901D01*
X32495Y36859D01*
X32538Y36830D01*
X32579Y36822D01*
Y36943D01*
D02*
G37*
G36*
X36397Y20492D02*
X36217D01*
X36038D01*
X36046Y20451D01*
X36075Y20408D01*
X36081Y20404D01*
Y20344D01*
X36075Y20340D01*
X36046Y20297D01*
X36038Y20256D01*
X36217D01*
X36397D01*
X36389Y20297D01*
X36360Y20340D01*
X36354Y20344D01*
Y20404D01*
X36360Y20408D01*
X36389Y20451D01*
X36397Y20492D01*
D02*
G37*
G36*
X36158Y20731D02*
X36117Y20722D01*
X36075Y20694D01*
X36046Y20651D01*
X36038Y20610D01*
X36158D01*
Y20731D01*
D02*
G37*
G36*
X36276D02*
Y20610D01*
X36397D01*
X36389Y20651D01*
X36360Y20694D01*
X36318Y20722D01*
X36276Y20731D01*
D02*
G37*
G36*
X33793Y20760D02*
Y20640D01*
X33913D01*
X33905Y20681D01*
X33876Y20724D01*
X33834Y20752D01*
X33793Y20760D01*
D02*
G37*
G36*
X36158Y20138D02*
X36038D01*
X36046Y20097D01*
X36075Y20054D01*
X36117Y20026D01*
X36158Y20017D01*
Y20138D01*
D02*
G37*
G36*
X36397D02*
X36276D01*
Y20017D01*
X36318Y20026D01*
X36360Y20054D01*
X36389Y20097D01*
X36397Y20138D01*
D02*
G37*
G36*
X37061Y23076D02*
X36890D01*
Y22944D01*
X36926D01*
X36978Y22954D01*
X37022Y22984D01*
X37052Y23028D01*
X37061Y23076D01*
D02*
G37*
G36*
X36299D02*
X36128D01*
X36137Y23028D01*
X36167Y22984D01*
X36211Y22954D01*
X36263Y22944D01*
X36299D01*
Y23076D01*
D02*
G37*
G36*
X37064Y21164D02*
Y21043D01*
X37184D01*
X37176Y21084D01*
X37148Y21127D01*
X37105Y21156D01*
X37064Y21164D01*
D02*
G37*
G36*
X34269Y23172D02*
X34227Y23163D01*
X34185Y23135D01*
X34156Y23092D01*
X34148Y23051D01*
X34269D01*
Y23172D01*
D02*
G37*
G36*
X37184Y20925D02*
X37064D01*
Y20805D01*
X37105Y20813D01*
X37148Y20841D01*
X37176Y20884D01*
X37184Y20925D01*
D02*
G37*
G36*
X36946Y21164D02*
X36904Y21156D01*
X36862Y21127D01*
X36833Y21084D01*
X36825Y21043D01*
X36946D01*
Y21164D01*
D02*
G37*
G36*
X33691Y22430D02*
X33400D01*
X33369Y22424D01*
X33343Y22407D01*
X33326Y22381D01*
X33320Y22350D01*
Y22059D01*
X33691D01*
Y22430D01*
D02*
G37*
G36*
X35798Y22757D02*
X35698D01*
X35655Y22749D01*
X35619Y22725D01*
X35594Y22688D01*
X35586Y22645D01*
Y22545D01*
X35594Y22502D01*
X35619Y22466D01*
X35629Y22459D01*
Y22394D01*
X35543Y22358D01*
X35458Y22292D01*
X35392Y22207D01*
X35351Y22107D01*
X35336Y22000D01*
X35351Y21893D01*
X35392Y21793D01*
X35458Y21708D01*
X35543Y21642D01*
X35643Y21601D01*
X35750Y21586D01*
X35857Y21601D01*
X35957Y21642D01*
X36042Y21708D01*
X36108Y21793D01*
X36149Y21893D01*
X36164Y22000D01*
X36149Y22107D01*
X36108Y22207D01*
X36042Y22292D01*
X35957Y22358D01*
X35871Y22394D01*
Y22462D01*
X35877Y22466D01*
X35902Y22502D01*
X35910Y22545D01*
Y22645D01*
X35902Y22688D01*
X35877Y22725D01*
X35841Y22749D01*
X35798Y22757D01*
D02*
G37*
G36*
X34180Y21941D02*
X33809D01*
Y21570D01*
X34100D01*
X34131Y21576D01*
X34157Y21593D01*
X34174Y21619D01*
X34180Y21650D01*
Y21941D01*
D02*
G37*
G36*
X33691D02*
X33320D01*
Y21650D01*
X33326Y21619D01*
X33343Y21593D01*
X33369Y21576D01*
X33400Y21570D01*
X33691D01*
Y21941D01*
D02*
G37*
G36*
X34269Y22539D02*
X34148D01*
X34156Y22498D01*
X34185Y22456D01*
X34227Y22427D01*
X34269Y22419D01*
Y22539D01*
D02*
G37*
G36*
X34100Y22430D02*
X33809D01*
Y22059D01*
X34180D01*
Y22350D01*
X34174Y22381D01*
X34157Y22407D01*
X34131Y22424D01*
X34100Y22430D01*
D02*
G37*
G36*
X36772Y23326D02*
X36736D01*
X36684Y23316D01*
X36639Y23286D01*
X36623Y23261D01*
X36566D01*
X36550Y23286D01*
X36505Y23316D01*
X36453Y23326D01*
X36417D01*
Y23135D01*
Y22944D01*
X36453D01*
X36505Y22954D01*
X36550Y22984D01*
X36566Y23009D01*
X36623D01*
X36639Y22984D01*
X36684Y22954D01*
X36736Y22944D01*
X36772D01*
Y23135D01*
Y23326D01*
D02*
G37*
G36*
X36926D02*
X36890D01*
Y23194D01*
X37061D01*
X37052Y23242D01*
X37022Y23286D01*
X36978Y23316D01*
X36926Y23326D01*
D02*
G37*
G36*
X36299D02*
X36263D01*
X36211Y23316D01*
X36167Y23286D01*
X36137Y23242D01*
X36128Y23194D01*
X36299D01*
Y23326D01*
D02*
G37*
G36*
X36946Y20925D02*
X36825D01*
X36833Y20884D01*
X36862Y20841D01*
X36904Y20813D01*
X36946Y20805D01*
Y20925D01*
D02*
G37*
G36*
X34301Y23602D02*
X34169D01*
Y23431D01*
X34217Y23440D01*
X34261Y23470D01*
X34290Y23514D01*
X34301Y23566D01*
Y23602D01*
D02*
G37*
G36*
X34050D02*
X33918D01*
Y23566D01*
X33928Y23514D01*
X33958Y23470D01*
X34002Y23440D01*
X34050Y23431D01*
Y23602D01*
D02*
G37*
G36*
X34856Y40728D02*
X34724D01*
Y40692D01*
X34734Y40640D01*
X34764Y40596D01*
X34808Y40566D01*
X34856Y40557D01*
Y40728D01*
D02*
G37*
G36*
X35106D02*
X34974D01*
Y40557D01*
X35022Y40566D01*
X35066Y40596D01*
X35096Y40640D01*
X35106Y40692D01*
Y40728D01*
D02*
G37*
G36*
X37159Y41040D02*
X37028D01*
Y40897D01*
X37300D01*
Y40898D01*
X37289Y40952D01*
X37259Y40998D01*
X37213Y41029D01*
X37159Y41040D01*
D02*
G37*
G36*
X36909D02*
X36779D01*
X36724Y41029D01*
X36678Y40998D01*
X36648Y40952D01*
X36637Y40898D01*
Y40897D01*
X36909D01*
Y41040D01*
D02*
G37*
G36*
X35106Y41201D02*
X34915D01*
X34724D01*
Y41165D01*
X34734Y41113D01*
X34764Y41068D01*
X34789Y41052D01*
Y40996D01*
X34764Y40979D01*
X34734Y40935D01*
X34724Y40882D01*
Y40846D01*
X34915D01*
X35106D01*
Y40882D01*
X35096Y40935D01*
X35066Y40979D01*
X35041Y40996D01*
Y41052D01*
X35066Y41068D01*
X35096Y41113D01*
X35106Y41165D01*
Y41201D01*
D02*
G37*
G36*
X37941Y42941D02*
X37626D01*
X37631Y42901D01*
X37669Y42809D01*
X37730Y42730D01*
X37809Y42669D01*
X37901Y42631D01*
X37941Y42626D01*
Y42941D01*
D02*
G37*
G36*
X36579Y42691D02*
X36209D01*
Y42321D01*
X36263Y42328D01*
X36368Y42372D01*
X36459Y42441D01*
X36528Y42532D01*
X36572Y42637D01*
X36579Y42691D01*
D02*
G37*
G36*
X36091D02*
X35721D01*
X35728Y42637D01*
X35772Y42532D01*
X35841Y42441D01*
X35932Y42372D01*
X36037Y42328D01*
X36091Y42321D01*
Y42691D01*
D02*
G37*
G36*
Y43179D02*
X36037Y43172D01*
X35932Y43128D01*
X35841Y43059D01*
X35772Y42968D01*
X35728Y42863D01*
X35721Y42809D01*
X36091D01*
Y43179D01*
D02*
G37*
G36*
X34414Y43127D02*
X34414D01*
Y42854D01*
X34556D01*
Y42985D01*
X34545Y43039D01*
X34515Y43085D01*
X34469Y43116D01*
X34414Y43127D01*
D02*
G37*
G36*
X34295D02*
X34294D01*
X34240Y43116D01*
X34194Y43085D01*
X34164Y43039D01*
X34153Y42985D01*
Y42854D01*
X34295D01*
Y43127D01*
D02*
G37*
G36*
X36209Y43179D02*
Y42809D01*
X36579D01*
X36572Y42863D01*
X36528Y42968D01*
X36459Y43059D01*
X36368Y43128D01*
X36263Y43172D01*
X36209Y43179D01*
D02*
G37*
G36*
X35106Y41673D02*
X34915D01*
X34724D01*
Y41637D01*
X34734Y41585D01*
X34764Y41541D01*
X34789Y41524D01*
Y41468D01*
X34764Y41451D01*
X34734Y41407D01*
X34724Y41355D01*
Y41319D01*
X34915D01*
X35106D01*
Y41355D01*
X35096Y41407D01*
X35066Y41451D01*
X35041Y41468D01*
Y41524D01*
X35066Y41541D01*
X35096Y41585D01*
X35106Y41637D01*
Y41673D01*
D02*
G37*
G36*
Y42146D02*
X34915D01*
X34724D01*
Y42110D01*
X34734Y42058D01*
X34764Y42013D01*
X34789Y41997D01*
Y41940D01*
X34764Y41924D01*
X34734Y41879D01*
X34724Y41827D01*
Y41791D01*
X34915D01*
X35106D01*
Y41827D01*
X35096Y41879D01*
X35066Y41924D01*
X35041Y41940D01*
Y41997D01*
X35066Y42013D01*
X35096Y42058D01*
X35106Y42110D01*
Y42146D01*
D02*
G37*
G36*
X34974Y42435D02*
Y42264D01*
X35106D01*
Y42300D01*
X35096Y42352D01*
X35066Y42396D01*
X35022Y42426D01*
X34974Y42435D01*
D02*
G37*
G36*
X34856Y42435D02*
X34808Y42426D01*
X34764Y42396D01*
X34734Y42352D01*
X34724Y42300D01*
Y42264D01*
X34856D01*
Y42435D01*
D02*
G37*
G36*
X32059Y29374D02*
Y29059D01*
X32374D01*
X32369Y29099D01*
X32331Y29191D01*
X32270Y29270D01*
X32191Y29331D01*
X32099Y29369D01*
X32059Y29374D01*
D02*
G37*
G36*
X32374Y28941D02*
X32059D01*
Y28626D01*
X32099Y28631D01*
X32191Y28669D01*
X32270Y28730D01*
X32331Y28809D01*
X32369Y28901D01*
X32374Y28941D01*
D02*
G37*
G36*
X33757Y28110D02*
X33636D01*
Y27990D01*
X33677Y27998D01*
X33720Y28026D01*
X33748Y28069D01*
X33757Y28110D01*
D02*
G37*
G36*
X33518D02*
X33398D01*
X33406Y28069D01*
X33434Y28026D01*
X33477Y27998D01*
X33518Y27990D01*
Y28110D01*
D02*
G37*
G36*
X35610Y28587D02*
X35291D01*
X35297Y28555D01*
X35348Y28478D01*
X35425Y28427D01*
X35516Y28409D01*
X35610D01*
Y28587D01*
D02*
G37*
G36*
X33636Y28349D02*
Y28228D01*
X33757D01*
X33748Y28270D01*
X33720Y28312D01*
X33677Y28341D01*
X33636Y28349D01*
D02*
G37*
G36*
X33518D02*
X33477Y28341D01*
X33434Y28312D01*
X33406Y28270D01*
X33398Y28228D01*
X33518D01*
Y28349D01*
D02*
G37*
G36*
X36555Y25257D02*
X36496D01*
Y25020D01*
X36635D01*
Y25177D01*
X36629Y25208D01*
X36612Y25234D01*
X36586Y25251D01*
X36555Y25257D01*
D02*
G37*
G36*
X36378D02*
X36319D01*
X36288Y25251D01*
X36262Y25234D01*
X36245Y25208D01*
X36239Y25177D01*
Y25020D01*
X36378D01*
Y25257D01*
D02*
G37*
G36*
X36063D02*
X36004D01*
Y25020D01*
X36143D01*
Y25177D01*
X36137Y25208D01*
X36120Y25234D01*
X36094Y25251D01*
X36063Y25257D01*
D02*
G37*
G36*
X35886D02*
X35827D01*
X35796Y25251D01*
X35770Y25234D01*
X35753Y25208D01*
X35746Y25177D01*
Y25020D01*
X35886D01*
Y25257D01*
D02*
G37*
G36*
Y24902D02*
X35746D01*
Y24744D01*
X35753Y24713D01*
X35770Y24687D01*
X35796Y24670D01*
X35827Y24664D01*
X35886D01*
Y24902D01*
D02*
G37*
G36*
X36143D02*
X36004D01*
Y24664D01*
X36063D01*
X36094Y24670D01*
X36120Y24687D01*
X36137Y24713D01*
X36143Y24744D01*
Y24902D01*
D02*
G37*
G36*
X33069Y41279D02*
X33028Y41270D01*
X32986Y41242D01*
X32957Y41199D01*
X32949Y41158D01*
X33069D01*
Y41279D01*
D02*
G37*
%LPD*%
D10*
X35519Y26299D02*
D03*
X35919D02*
D03*
X36778Y32402D02*
D03*
X36378D02*
D03*
X33333Y20581D02*
D03*
X33733D02*
D03*
Y20226D02*
D03*
X33333D02*
D03*
X33733Y19872D02*
D03*
X33333D02*
D03*
X36617Y20197D02*
D03*
X36217D02*
D03*
X36617Y20551D02*
D03*
X36217D02*
D03*
X37405Y20984D02*
D03*
X37005D02*
D03*
X36503Y24488D02*
D03*
X36903D02*
D03*
X36503Y24134D02*
D03*
X36903D02*
D03*
X34328Y22598D02*
D03*
X34728D02*
D03*
X34328Y22992D02*
D03*
X34728D02*
D03*
X33761Y24764D02*
D03*
X34161D02*
D03*
X33013D02*
D03*
X33413D02*
D03*
X37087Y27835D02*
D03*
X36687D02*
D03*
X34519Y30456D02*
D03*
X34919D02*
D03*
D13*
X37207Y30003D02*
X38000D01*
X33740Y24784D02*
Y25108D01*
Y24784D02*
X33761Y24764D01*
X37126Y29921D02*
X37207Y30003D01*
X37126Y29173D02*
Y29921D01*
X35472Y27520D02*
X37126Y29173D01*
X35264Y27520D02*
X35472D01*
X36260Y27992D02*
X37402Y29134D01*
X36260Y27520D02*
Y27992D01*
X37402Y29134D02*
Y29803D01*
X36617Y20197D02*
X36617Y20197D01*
X37047D01*
X37441Y20591D01*
X36657Y20512D02*
X37008D01*
X36617Y20551D02*
X36657Y20512D01*
X35453Y24669D02*
Y24961D01*
Y24669D02*
X35630Y24491D01*
Y23735D02*
Y24091D01*
X33632Y25945D02*
X33740Y25837D01*
X33228Y25945D02*
X33632D01*
X33110Y25827D02*
X33228Y25945D01*
X33110Y25594D02*
Y25827D01*
X36437Y26201D02*
X36575Y26339D01*
Y26417D01*
X34598Y26701D02*
X36646D01*
X36437Y25827D02*
Y26201D01*
X36139Y26499D02*
X36437Y26201D01*
X34619Y26499D02*
X36139D01*
X36646Y26701D02*
X36949Y26398D01*
X33937Y26040D02*
X34598Y26701D01*
X36949Y26270D02*
Y26398D01*
X33937Y25837D02*
Y26040D01*
X37402Y30203D02*
Y30402D01*
X38000Y31000D01*
Y30000D02*
Y30003D01*
X34609Y25745D02*
X34764D01*
X35079Y26299D02*
X35519D01*
X34918D02*
X35079D01*
Y26024D02*
Y26299D01*
X37744Y30000D02*
X38000D01*
X35079Y24252D02*
X35236Y24094D01*
X34134Y26014D02*
X34619Y26499D01*
X35079Y24252D02*
Y26024D01*
X34764Y26145D02*
X34918Y26299D01*
X35919Y25853D02*
X35945Y25827D01*
X35919Y25853D02*
Y26299D01*
X34134Y25837D02*
Y26014D01*
X36929Y25827D02*
Y26250D01*
X36949Y26270D01*
X37765Y24499D02*
X37768D01*
X37690Y24574D02*
X37765Y24499D01*
X37480Y24574D02*
X37690D01*
X36750Y22000D02*
X37480Y22730D01*
Y24574D01*
X34400Y25177D02*
X34606Y24970D01*
Y24803D02*
Y24970D01*
X37087Y27835D02*
X37402D01*
X36687Y27213D02*
Y27835D01*
Y27213D02*
X36750Y27150D01*
X36687Y27835D02*
Y27946D01*
X36929Y28189D01*
X35453Y25413D02*
Y25827D01*
Y25413D02*
X35472Y25394D01*
X32535Y26535D02*
X34016D01*
X32000Y26000D02*
X32535Y26535D01*
X33455Y25393D02*
X33474Y25374D01*
X32913Y25393D02*
X33455D01*
X32677Y25157D02*
X32913Y25393D01*
X32677Y24677D02*
Y25157D01*
X32000Y24000D02*
X32677Y24677D01*
X32594Y25594D02*
X33110D01*
X32000Y25000D02*
X32594Y25594D01*
X32000Y23000D02*
X33213Y24213D01*
X33740D01*
X33031Y38150D02*
Y38504D01*
X32638Y38150D02*
X33031Y37756D01*
Y37750D02*
Y37756D01*
Y37402D02*
Y37750D01*
X32638Y37402D02*
Y37750D01*
X32250D02*
X32638D01*
X32000Y38000D02*
X32250Y37750D01*
X33333Y20581D02*
Y20682D01*
X33189Y20827D02*
X33333Y20682D01*
X32913Y21181D02*
X33268D01*
X33534Y20915D01*
Y20426D02*
X33733Y20226D01*
X33534Y20426D02*
Y20915D01*
X33763Y19843D02*
X34291D01*
X33733Y19872D02*
X33763Y19843D01*
D14*
X34394Y37205D02*
X34606Y37417D01*
Y37441D01*
X34797Y37205D02*
Y37250D01*
X34606Y37441D02*
X34797Y37250D01*
Y37631D02*
Y37677D01*
X34606Y37441D02*
X34797Y37631D01*
X34394Y37677D02*
X34606Y37465D01*
Y37441D02*
Y37465D01*
Y37938D02*
Y37959D01*
X34394Y38150D02*
X34606Y37938D01*
Y37913D02*
Y37938D01*
Y37959D02*
X34797Y38150D01*
X34606Y37868D02*
Y37889D01*
Y37868D02*
X34797Y37677D01*
X34394D02*
X34606Y37889D01*
Y37913D01*
Y38340D02*
Y38361D01*
Y38340D02*
X34797Y38150D01*
X34394D02*
X34606Y38361D01*
Y38386D01*
Y38410D02*
Y38431D01*
Y38386D02*
Y38410D01*
Y38431D02*
X34797Y38622D01*
X34394D02*
X34606Y38410D01*
X37405Y21405D02*
X38000Y22000D01*
X37405Y20984D02*
Y21405D01*
X35457Y30111D02*
X36038D01*
X35211Y29865D02*
X35457Y30111D01*
X35211Y29531D02*
Y29865D01*
X34906Y29225D02*
X35211Y29531D01*
X33577Y28569D02*
Y28917D01*
Y29317D02*
X33970D01*
X33695Y40759D02*
X34359D01*
X33622Y40686D02*
X33695Y40759D01*
X33622Y40444D02*
Y40686D01*
X34359Y40759D02*
X34369Y40750D01*
X35353Y34337D02*
X35362Y34328D01*
X35866D01*
X36150Y35750D02*
X36260Y35640D01*
Y34728D02*
Y35640D01*
X34369Y40443D02*
Y40750D01*
X33620Y40443D02*
X33622Y40444D01*
X37528Y40472D02*
X38000Y40000D01*
X36428Y40472D02*
X37528D01*
X36150Y40750D02*
X36428Y40472D01*
X35748Y22595D02*
X35750Y22593D01*
Y22000D02*
Y22593D01*
X37974Y24974D02*
X38000Y25000D01*
X37480Y24974D02*
X37974D01*
X34134Y24790D02*
Y25108D01*
Y24790D02*
X34161Y24764D01*
X33127Y25177D02*
X33474D01*
X33110Y25194D02*
X33127Y25177D01*
X33465Y25167D02*
X33474Y25177D01*
X33465Y25000D02*
Y25167D01*
X33413Y24948D02*
X33465Y25000D01*
X33413Y24764D02*
Y24948D01*
Y24619D02*
Y24764D01*
X35397Y23346D02*
X35748Y22995D01*
X35236Y23346D02*
X35397D01*
X33413Y24619D02*
X33543Y24488D01*
X33885D01*
X34161Y24764D01*
X33970Y29317D02*
X34142Y29146D01*
X34906Y28382D02*
Y29225D01*
X36038Y30111D02*
X36181Y30255D01*
Y30679D01*
X35768Y31093D02*
X36181Y30679D01*
X36778Y32402D02*
Y32867D01*
X36791Y32880D01*
X37880D01*
X38000Y33000D01*
X35512Y31811D02*
Y32057D01*
Y31811D02*
X35630Y31693D01*
X37693D01*
X38000Y32000D01*
X37457Y34000D02*
X38000D01*
X36024Y34055D02*
X36535D01*
X35866Y34213D02*
X36024Y34055D01*
X35866Y34213D02*
Y34328D01*
X36535Y34055D02*
X36614Y34134D01*
X37323D01*
X37457Y34000D01*
X34595Y36417D02*
X35353Y35659D01*
X34173Y36417D02*
X34595D01*
X32583D02*
X33071D01*
X32000Y37000D02*
X32583Y36417D01*
X32000Y36000D02*
X32520Y35480D01*
X33445Y28917D02*
X33577D01*
X33228Y29134D02*
X33445Y28917D01*
X33228Y29134D02*
Y29882D01*
X32520Y30591D02*
X33228Y29882D01*
X32520Y30591D02*
X32520D01*
X32520D02*
Y35480D01*
D15*
X33434Y35236D02*
Y37008D01*
Y30709D02*
Y31614D01*
Y30208D02*
Y30709D01*
Y31614D02*
Y32520D01*
Y33425D01*
Y34331D01*
Y35236D01*
Y37402D02*
Y38465D01*
Y37008D02*
Y37402D01*
X33071Y38937D02*
X33425D01*
X32717D02*
X33071D01*
X33434Y38465D02*
Y38928D01*
X32538Y39370D02*
Y40354D01*
Y39115D02*
Y39370D01*
Y40354D02*
Y41417D01*
Y41462D01*
X32000Y42000D02*
X32538Y41462D01*
X33228Y40669D02*
X33622Y41063D01*
X34065Y35177D02*
X34154Y35266D01*
X34958Y30495D02*
X35285D01*
X34919Y30456D02*
X34958Y30495D01*
X33577Y29665D02*
X33597Y29646D01*
X34142D02*
X34642D01*
X34906Y29909D02*
X34919Y29923D01*
X33789Y35177D02*
X34065D01*
X35236Y31073D02*
X35256Y31093D01*
X33789Y31073D02*
X35236D01*
X34026Y33711D02*
X34961D01*
X33789Y33947D02*
X34026Y33711D01*
X33794Y37205D02*
Y37677D01*
Y38150D01*
Y38622D01*
X33622Y41063D02*
X33906D01*
X34369Y41526D01*
X33780Y42165D02*
X33976Y41968D01*
Y41772D02*
Y41968D01*
Y41772D02*
X34222Y41526D01*
X33430Y43000D02*
X33634Y42795D01*
X32000Y43000D02*
X33430D01*
X33634Y42165D02*
Y42795D01*
Y42165D02*
X33780D01*
X34222Y41526D02*
X34369D01*
X35630Y23735D02*
X36358D01*
X35093D02*
X35630D01*
X36358D02*
X36831D01*
X36903Y23807D01*
Y24134D01*
X36929Y24961D02*
X37402Y25433D01*
X34728Y22598D02*
Y22802D01*
X34734Y22795D01*
X34728Y22802D02*
Y22992D01*
Y22022D02*
X34750Y22000D01*
X34728Y22022D02*
Y22598D01*
X36903Y24134D02*
Y24488D01*
X36929Y24515D01*
Y24961D01*
X37402Y25433D02*
Y27835D01*
Y28402D02*
X38000Y29000D01*
X37402Y27835D02*
Y28402D01*
X34161Y24683D02*
Y24764D01*
X34728Y22992D02*
Y23643D01*
X34161Y24683D02*
X34709Y24134D01*
Y24119D02*
X35093Y23735D01*
X34709Y23661D02*
X34728Y23643D01*
X34709Y24119D02*
Y24134D01*
Y23661D02*
Y24119D01*
X33228Y40148D02*
Y40669D01*
Y40148D02*
X33794Y39581D01*
Y38622D02*
Y39581D01*
X33425Y38937D02*
X33434Y38928D01*
X32538Y39115D02*
X32717Y38937D01*
X34642Y29646D02*
X34906Y29909D01*
X34919Y29923D02*
Y30456D01*
X33597Y29646D02*
X34142D01*
X33434Y30208D02*
X33577Y30065D01*
X33789Y31073D02*
Y33947D01*
Y35177D01*
X33794Y35182D01*
Y37205D01*
D16*
X36909Y33789D02*
Y33829D01*
X36697Y33577D02*
X36909Y33789D01*
X36417Y33577D02*
X36697D01*
X35335Y32746D02*
Y33169D01*
X35742Y33577D01*
X36417D01*
X33128Y41499D02*
X33594D01*
X33620Y41526D01*
X33428Y37002D02*
X33434Y37008D01*
X35256Y31043D02*
Y31093D01*
Y31043D02*
X35804Y30495D01*
X35885D01*
D17*
X32000Y27000D02*
D03*
Y28000D02*
D03*
Y29000D02*
D03*
Y43000D02*
D03*
Y42000D02*
D03*
Y41000D02*
D03*
X38000Y29000D02*
D03*
X32000Y26000D02*
D03*
Y25000D02*
D03*
Y24000D02*
D03*
Y23000D02*
D03*
Y22000D02*
D03*
Y21000D02*
D03*
Y20000D02*
D03*
X38000D02*
D03*
Y21000D02*
D03*
Y22000D02*
D03*
Y23000D02*
D03*
Y24000D02*
D03*
Y25000D02*
D03*
Y26000D02*
D03*
Y27000D02*
D03*
Y28000D02*
D03*
X32000Y40000D02*
D03*
Y39000D02*
D03*
Y38000D02*
D03*
Y37000D02*
D03*
Y36000D02*
D03*
Y35000D02*
D03*
Y34000D02*
D03*
Y33000D02*
D03*
Y32000D02*
D03*
Y31000D02*
D03*
Y30000D02*
D03*
X38000D02*
D03*
Y31000D02*
D03*
Y32000D02*
D03*
Y33000D02*
D03*
Y34000D02*
D03*
Y35000D02*
D03*
Y36000D02*
D03*
Y37000D02*
D03*
Y38000D02*
D03*
Y39000D02*
D03*
Y40000D02*
D03*
Y41000D02*
D03*
Y42000D02*
D03*
Y43000D02*
D03*
D18*
X33061Y39508D02*
D03*
X34439D02*
D03*
D19*
X36150Y35750D02*
D03*
Y36750D02*
D03*
Y37750D02*
D03*
Y38750D02*
D03*
Y39750D02*
D03*
Y40750D02*
D03*
Y41750D02*
D03*
Y42750D02*
D03*
D20*
X33750Y22000D02*
D03*
D21*
X34750D02*
D03*
X35750D02*
D03*
X36750D02*
D03*
X33750Y27150D02*
D03*
X34750D02*
D03*
X35750D02*
D03*
X36750D02*
D03*
D22*
X32520Y42283D02*
D03*
X35236Y28071D02*
D03*
X33228Y28622D02*
D03*
Y28110D02*
D03*
X34488D02*
D03*
X34016D02*
D03*
X36417Y29213D02*
D03*
X36457Y29606D02*
D03*
Y30079D02*
D03*
Y30512D02*
D03*
X35512Y28228D02*
D03*
X36181Y28937D02*
D03*
X34134Y30512D02*
D03*
X33937Y30118D02*
D03*
X32835Y36732D02*
D03*
X33434Y30709D02*
D03*
Y31614D02*
D03*
Y32520D02*
D03*
Y33425D02*
D03*
Y34331D02*
D03*
Y35236D02*
D03*
X33425Y36102D02*
D03*
Y36732D02*
D03*
X33434Y37402D02*
D03*
X33071Y38937D02*
D03*
X33434Y38465D02*
D03*
X32538Y39370D02*
D03*
Y40354D02*
D03*
Y41417D02*
D03*
X32913Y39961D02*
D03*
Y40866D02*
D03*
X33071Y41890D02*
D03*
Y42598D02*
D03*
X36142Y24094D02*
D03*
X36181Y25354D02*
D03*
X35984Y24409D02*
D03*
X32638Y26969D02*
D03*
X35197Y20748D02*
D03*
X33701Y21102D02*
D03*
X34370Y20591D02*
D03*
X35591Y20197D02*
D03*
X36220Y20945D02*
D03*
X32953Y22205D02*
D03*
Y23307D02*
D03*
X36850Y22717D02*
D03*
X36339D02*
D03*
X33976Y22598D02*
D03*
Y22992D02*
D03*
X33740Y23661D02*
D03*
X32913Y24370D02*
D03*
X34764Y25354D02*
D03*
X33898Y25472D02*
D03*
X32638Y28228D02*
D03*
Y28819D02*
D03*
Y29370D02*
D03*
X36220Y31102D02*
D03*
X37441Y30984D02*
D03*
X37598Y32480D02*
D03*
X37520Y33504D02*
D03*
X36181Y32008D02*
D03*
X34213Y33268D02*
D03*
X34921Y31890D02*
D03*
X35276Y31535D02*
D03*
X36417Y32874D02*
D03*
X35709Y32520D02*
D03*
X34213Y35945D02*
D03*
X34961Y34606D02*
D03*
X35591Y33898D02*
D03*
X35472Y36220D02*
D03*
X36732Y36142D02*
D03*
X37520Y35512D02*
D03*
X35433Y34803D02*
D03*
X35906Y35118D02*
D03*
X37244Y37008D02*
D03*
X36811D02*
D03*
X37244Y37520D02*
D03*
X36811D02*
D03*
X37244Y38031D02*
D03*
X36811D02*
D03*
X34606Y38386D02*
D03*
Y37913D02*
D03*
Y37441D02*
D03*
X34173Y36811D02*
D03*
X34528D02*
D03*
X34173Y38976D02*
D03*
X34803Y39055D02*
D03*
X35787Y39252D02*
D03*
X37244Y38543D02*
D03*
X36811D02*
D03*
X34528Y41024D02*
D03*
X37165Y41260D02*
D03*
X36772D02*
D03*
X36614Y43110D02*
D03*
X37008Y42717D02*
D03*
X37402D02*
D03*
X37008Y43110D02*
D03*
X37402D02*
D03*
X35236D02*
D03*
X34803D02*
D03*
X35236Y42677D02*
D03*
X34803D02*
D03*
X37441Y20591D02*
D03*
X37008Y20512D02*
D03*
X36909Y33829D02*
D03*
X34154Y35266D02*
D03*
X33789Y31073D02*
D03*
X36575Y26417D02*
D03*
X36260Y27520D02*
D03*
X35264D02*
D03*
X35079Y26024D02*
D03*
X35236Y24094D02*
D03*
X36949Y26270D02*
D03*
X37768Y24499D02*
D03*
X34606Y24803D02*
D03*
X36929Y28189D02*
D03*
X35472Y25394D02*
D03*
X34016Y26535D02*
D03*
X35236Y23346D02*
D03*
X33740Y24213D02*
D03*
X33031Y38504D02*
D03*
X34173Y36417D02*
D03*
X33071D02*
D03*
X33189Y20827D02*
D03*
X32913Y21181D02*
D03*
X34331Y19882D02*
D03*
D23*
X34134Y25837D02*
D03*
X33937D02*
D03*
X33740D02*
D03*
Y25108D02*
D03*
X33937D02*
D03*
X34134D02*
D03*
D24*
X33474Y25768D02*
D03*
Y25571D02*
D03*
Y25374D02*
D03*
Y25177D02*
D03*
X34400D02*
D03*
Y25374D02*
D03*
Y25571D02*
D03*
Y25768D02*
D03*
D25*
X35353Y34337D02*
D03*
X34605D02*
D03*
X34979Y35033D02*
D03*
X36791Y32880D02*
D03*
X36043D02*
D03*
X36417Y33577D02*
D03*
D26*
X36969Y38971D02*
D03*
Y39691D02*
D03*
X35294Y39809D02*
D03*
Y39089D02*
D03*
X36969Y40838D02*
D03*
Y40118D02*
D03*
D27*
X35630Y24091D02*
D03*
Y24491D02*
D03*
X37480Y24574D02*
D03*
Y24974D02*
D03*
X35748Y22995D02*
D03*
Y22595D02*
D03*
X33110Y25194D02*
D03*
Y25594D02*
D03*
X37402Y29803D02*
D03*
Y30203D02*
D03*
X33577Y28569D02*
D03*
Y28169D02*
D03*
Y28917D02*
D03*
Y29317D02*
D03*
Y30065D02*
D03*
Y29665D02*
D03*
X35866Y34328D02*
D03*
Y34728D02*
D03*
X36260D02*
D03*
Y34328D02*
D03*
X32638Y38150D02*
D03*
Y37750D02*
D03*
Y37002D02*
D03*
Y37402D02*
D03*
X33031D02*
D03*
Y37002D02*
D03*
Y38150D02*
D03*
Y37750D02*
D03*
X33128Y41099D02*
D03*
Y41499D02*
D03*
X34764Y26145D02*
D03*
Y25745D02*
D03*
D28*
X36358Y23135D02*
D03*
Y23735D02*
D03*
X36831Y23135D02*
D03*
Y23735D02*
D03*
D29*
X34109Y23661D02*
D03*
X34709D02*
D03*
X34109Y24134D02*
D03*
X34709D02*
D03*
X35285Y30495D02*
D03*
X35885D02*
D03*
X34394Y37205D02*
D03*
X33794D02*
D03*
X34394Y37677D02*
D03*
X33794D02*
D03*
X34394Y38150D02*
D03*
X33794D02*
D03*
X34394Y38622D02*
D03*
X33794D02*
D03*
X34797Y37205D02*
D03*
X35397D02*
D03*
X34797Y37677D02*
D03*
X35397D02*
D03*
X34797Y38150D02*
D03*
X35397D02*
D03*
X34797Y38622D02*
D03*
X35397D02*
D03*
X34915Y40787D02*
D03*
X35515D02*
D03*
X34915Y41260D02*
D03*
X35515D02*
D03*
X34915Y41732D02*
D03*
X35515D02*
D03*
X34915Y42205D02*
D03*
X35515D02*
D03*
D30*
X35669Y29646D02*
D03*
Y29146D02*
D03*
Y28646D02*
D03*
X34142D02*
D03*
Y29146D02*
D03*
Y29646D02*
D03*
D31*
X34906Y28382D02*
D03*
Y29909D02*
D03*
D32*
X35256Y31093D02*
D03*
X35768D02*
D03*
Y32057D02*
D03*
X35512D02*
D03*
X35256D02*
D03*
D33*
X35335Y32746D02*
D03*
X34587D02*
D03*
X34961Y33711D02*
D03*
X35353Y35659D02*
D03*
X34605D02*
D03*
X34979Y36624D02*
D03*
D34*
X34354Y42795D02*
D03*
X33634D02*
D03*
X34354Y42165D02*
D03*
X33634D02*
D03*
D35*
X34369Y41526D02*
D03*
X33620D02*
D03*
Y40443D02*
D03*
X33994D02*
D03*
X34369D02*
D03*
D36*
X36929Y24961D02*
D03*
X36437D02*
D03*
X35945D02*
D03*
X35453D02*
D03*
Y25827D02*
D03*
X35945D02*
D03*
X36437D02*
D03*
X36929D02*
D03*
D37*
X34979Y35033D02*
X35353Y35407D01*
Y35659D01*
X35443Y35750D01*
X36150D01*
X35397Y37042D02*
X35689Y36750D01*
X36150D01*
X34979Y36624D02*
X35397Y37042D01*
Y37205D01*
Y37677D01*
Y38150D01*
Y38622D01*
X35294Y38725D02*
X35397Y38622D01*
X35294Y38725D02*
Y39089D01*
D38*
X34400Y25768D02*
X34422Y25745D01*
X34609D01*
M02*
