G04 Layer_Physical_Order=1*
G04 Layer_Color=2232046*
%FSLAX24Y24*%
%MOIN*%
G70*
G01*
G75*
G04:AMPARAMS|DCode=10|XSize=20mil|YSize=20mil|CornerRadius=5mil|HoleSize=0mil|Usage=FLASHONLY|Rotation=270.000|XOffset=0mil|YOffset=0mil|HoleType=Round|Shape=RoundedRectangle|*
%AMROUNDEDRECTD10*
21,1,0.0200,0.0100,0,0,270.0*
21,1,0.0100,0.0200,0,0,270.0*
1,1,0.0100,-0.0050,-0.0050*
1,1,0.0100,-0.0050,0.0050*
1,1,0.0100,0.0050,0.0050*
1,1,0.0100,0.0050,-0.0050*
%
%ADD10ROUNDEDRECTD10*%
%ADD11R,0.0906X0.0591*%
%ADD12R,0.0984X0.0984*%
%ADD13C,0.0079*%
%ADD14C,0.0118*%
%ADD15C,0.0295*%
%ADD16C,0.0197*%
%ADD17C,0.0600*%
%ADD18C,0.0630*%
%ADD19C,0.0709*%
%ADD20R,0.0700X0.0700*%
%ADD21C,0.0700*%
%ADD22C,0.0295*%
G36*
X32677Y42362D02*
Y39055D01*
X33374D01*
X33393Y39009D01*
X33089Y38704D01*
X33031Y38716D01*
X32950Y38700D01*
X32882Y38654D01*
X32836Y38585D01*
X32820Y38504D01*
X32836Y38423D01*
X32882Y38354D01*
X32950Y38308D01*
X33031Y38292D01*
X33113Y38308D01*
X33181Y38354D01*
X33227Y38423D01*
X33243Y38504D01*
X33232Y38561D01*
X33536Y38866D01*
X33583Y38847D01*
Y36539D01*
X33239D01*
X33221Y36567D01*
X33152Y36613D01*
X33071Y36629D01*
X32990Y36613D01*
X32921Y36567D01*
X32875Y36498D01*
X32859Y36417D01*
X32875Y36336D01*
X32921Y36268D01*
X32990Y36222D01*
X33071Y36206D01*
X33152Y36222D01*
X33221Y36268D01*
X33239Y36296D01*
X33583D01*
Y31452D01*
X33578Y31427D01*
Y31073D01*
X33583Y31048D01*
Y30748D01*
X36575D01*
Y28740D01*
X35748Y27913D01*
X33110Y27913D01*
X33110Y29843D01*
X32402Y30551D01*
Y41260D01*
Y41496D01*
X31701D01*
Y41689D01*
X31751Y41714D01*
X31809Y41669D01*
X31901Y41631D01*
X31941Y41626D01*
Y42000D01*
Y42374D01*
X31901Y42369D01*
X31809Y42331D01*
X31751Y42286D01*
X31701Y42311D01*
Y42480D01*
X32559D01*
X32677Y42362D01*
D02*
G37*
G36*
X37714Y43249D02*
X37669Y43191D01*
X37631Y43099D01*
X37626Y43059D01*
X38000D01*
Y43000D01*
X38059D01*
Y42626D01*
X38099Y42631D01*
X38191Y42669D01*
X38249Y42714D01*
X38299Y42689D01*
Y42441D01*
X37598D01*
Y28290D01*
X37111D01*
X37079Y28339D01*
X37010Y28385D01*
X36929Y28401D01*
X36848Y28385D01*
X36779Y28339D01*
X36734Y28270D01*
X36717Y28189D01*
X36734Y28108D01*
X36779Y28039D01*
X36848Y27993D01*
X36929Y27977D01*
X37010Y27993D01*
X37079Y28039D01*
X37111Y28088D01*
X37598D01*
Y24877D01*
X37552Y24858D01*
X37503Y24907D01*
Y25817D01*
X37495Y25856D01*
X37473Y25889D01*
X37149Y26213D01*
X37161Y26270D01*
X37144Y26351D01*
X37099Y26419D01*
X37030Y26465D01*
X36949Y26481D01*
X36868Y26465D01*
X36833Y26442D01*
X36777Y26465D01*
X36770Y26498D01*
X36725Y26567D01*
X36656Y26613D01*
X36575Y26629D01*
X36518Y26618D01*
X36361Y26774D01*
Y26901D01*
X36411Y26918D01*
X36458Y26858D01*
X36543Y26792D01*
X36643Y26751D01*
X36750Y26736D01*
X36857Y26751D01*
X36957Y26792D01*
X37042Y26858D01*
X37108Y26943D01*
X37149Y27043D01*
X37164Y27150D01*
X37149Y27257D01*
X37108Y27357D01*
X37042Y27442D01*
X36957Y27508D01*
X36857Y27549D01*
X36750Y27564D01*
X36643Y27549D01*
X36543Y27508D01*
X36516Y27487D01*
X36471Y27516D01*
X36472Y27520D01*
X36455Y27601D01*
X36410Y27669D01*
X36341Y27715D01*
X36260Y27731D01*
X36179Y27715D01*
X36110Y27669D01*
X36064Y27601D01*
X36048Y27520D01*
X36053Y27498D01*
X36007Y27469D01*
X35957Y27508D01*
X35857Y27549D01*
X35750Y27564D01*
X35643Y27549D01*
X35543Y27508D01*
X35517Y27488D01*
X35475Y27514D01*
X35476Y27520D01*
X35460Y27601D01*
X35414Y27669D01*
X35364Y27703D01*
X35379Y27753D01*
X35748D01*
X35809Y27765D01*
X35862Y27800D01*
X35862Y27800D01*
X36688Y28627D01*
X36723Y28679D01*
X36735Y28740D01*
X36735Y28740D01*
Y30748D01*
X36723Y30809D01*
X36688Y30862D01*
X36636Y30896D01*
X36575Y30909D01*
X33989D01*
X33963Y30959D01*
X33985Y30992D01*
X34001Y31073D01*
Y31254D01*
X34665D01*
X34711Y31273D01*
X34730Y31319D01*
Y32303D01*
X34711Y32349D01*
X34665Y32368D01*
X33743D01*
Y34010D01*
X34665D01*
X34711Y34029D01*
X34730Y34075D01*
Y35059D01*
X34711Y35105D01*
X34665Y35124D01*
X34385D01*
Y35246D01*
X34385Y35246D01*
X34369Y35327D01*
X34323Y35396D01*
X34303Y35415D01*
X34235Y35461D01*
X34154Y35477D01*
X34073Y35461D01*
X34004Y35415D01*
X33958Y35347D01*
X33942Y35266D01*
X33958Y35185D01*
X33962Y35179D01*
Y35124D01*
X33743D01*
Y36296D01*
X34005D01*
X34024Y36268D01*
X34092Y36222D01*
X34173Y36206D01*
X34254Y36222D01*
X34323Y36268D01*
X34369Y36336D01*
X34385Y36417D01*
X34369Y36498D01*
X34323Y36567D01*
X34254Y36613D01*
X34173Y36629D01*
X34092Y36613D01*
X34024Y36567D01*
X34005Y36539D01*
X33743D01*
Y38847D01*
X33731Y38908D01*
X33696Y38960D01*
X33689Y38968D01*
X33685Y39014D01*
X34044Y39373D01*
X34093Y39363D01*
X34111Y39319D01*
X34172Y39240D01*
X34250Y39180D01*
X34341Y39143D01*
X34439Y39130D01*
X34537Y39143D01*
X34628Y39180D01*
X34706Y39240D01*
X34766Y39319D01*
X34804Y39410D01*
X34817Y39508D01*
X34804Y39606D01*
X34766Y39697D01*
X34706Y39775D01*
X34628Y39835D01*
X34537Y39873D01*
X34439Y39886D01*
X34341Y39873D01*
X34250Y39835D01*
X34172Y39775D01*
X34111Y39697D01*
X34075Y39609D01*
X34035D01*
X33997Y39601D01*
X33964Y39580D01*
X33550Y39166D01*
X33488Y39169D01*
X33436Y39203D01*
X33393Y39212D01*
X33372Y39254D01*
X33371Y39266D01*
X33405Y39309D01*
X33445Y39405D01*
X33450Y39449D01*
X33061D01*
Y39508D01*
X33002D01*
Y39897D01*
X32958Y39891D01*
X32888Y39862D01*
X32838Y39892D01*
Y42362D01*
X32838Y42362D01*
X32826Y42424D01*
X32791Y42476D01*
X32791Y42476D01*
X32673Y42594D01*
X32620Y42629D01*
X32559Y42641D01*
X32559Y42641D01*
X32202D01*
X32191Y42665D01*
X32189Y42691D01*
X32257Y42743D01*
X32314Y42818D01*
X32351Y42906D01*
X32363Y43000D01*
X32351Y43094D01*
X32314Y43182D01*
X32262Y43249D01*
X32275Y43299D01*
X37689D01*
X37714Y43249D01*
D02*
G37*
G36*
X32950Y29776D02*
X32950Y27913D01*
X32962Y27852D01*
X32997Y27800D01*
X33049Y27765D01*
X33110Y27753D01*
X35149Y27753D01*
X35164Y27703D01*
X35114Y27669D01*
X35068Y27601D01*
X35052Y27520D01*
X35057Y27494D01*
X35012Y27466D01*
X34957Y27508D01*
X34857Y27549D01*
X34750Y27564D01*
X34643Y27549D01*
X34543Y27508D01*
X34458Y27442D01*
X34392Y27357D01*
X34351Y27257D01*
X34336Y27150D01*
X34351Y27043D01*
X34392Y26943D01*
X34458Y26858D01*
X34543Y26792D01*
X34643Y26751D01*
X34750Y26736D01*
X34857Y26751D01*
X34929Y26780D01*
X34934Y26779D01*
X34977Y26747D01*
Y26206D01*
X34929Y26173D01*
X34883Y26105D01*
X34878Y26080D01*
X34830Y26066D01*
X34289Y26607D01*
X34256Y26629D01*
X34218Y26637D01*
X34198D01*
X34165Y26685D01*
X34097Y26731D01*
X34016Y26747D01*
X33970Y26738D01*
X33946Y26733D01*
X33931Y26781D01*
X33957Y26792D01*
X34042Y26858D01*
X34108Y26943D01*
X34149Y27043D01*
X34164Y27150D01*
X34149Y27257D01*
X34108Y27357D01*
X34042Y27442D01*
X33957Y27508D01*
X33857Y27549D01*
X33750Y27564D01*
X33643Y27549D01*
X33543Y27508D01*
X33458Y27442D01*
X33392Y27357D01*
X33351Y27257D01*
X33336Y27150D01*
X33351Y27043D01*
X33392Y26943D01*
X33458Y26858D01*
X33543Y26792D01*
X33643Y26751D01*
X33750Y26736D01*
X33857Y26751D01*
X33902Y26769D01*
X33925Y26725D01*
X33905Y26711D01*
X33866Y26685D01*
X33820Y26616D01*
X33804Y26535D01*
X33820Y26454D01*
X33866Y26386D01*
X33935Y26340D01*
X34016Y26324D01*
X34097Y26340D01*
X34165Y26386D01*
X34167Y26388D01*
X34217Y26393D01*
X35272Y25338D01*
X35277Y25313D01*
X35323Y25244D01*
X35391Y25198D01*
X35472Y25182D01*
X35553Y25198D01*
X35622Y25244D01*
X35668Y25313D01*
X35684Y25394D01*
X35668Y25475D01*
X35622Y25543D01*
X35553Y25589D01*
X35472Y25605D01*
X35391Y25589D01*
X35341Y25555D01*
X35121Y25775D01*
X35135Y25823D01*
X35160Y25828D01*
X35228Y25874D01*
X35274Y25943D01*
X35290Y26024D01*
X35274Y26105D01*
X35228Y26173D01*
X35180Y26206D01*
Y26730D01*
X35336Y26885D01*
X35353Y26912D01*
X35385Y26920D01*
X35409Y26921D01*
X35458Y26858D01*
X35543Y26792D01*
X35643Y26751D01*
X35750Y26736D01*
X35857Y26751D01*
X35957Y26792D01*
X36042Y26858D01*
X36108Y26943D01*
X36109Y26944D01*
X36159Y26934D01*
Y26732D01*
X36166Y26694D01*
X36188Y26661D01*
X36374Y26474D01*
X36363Y26417D01*
X36379Y26336D01*
X36425Y26268D01*
X36494Y26222D01*
X36575Y26206D01*
X36656Y26222D01*
X36691Y26245D01*
X36747Y26222D01*
X36753Y26189D01*
X36799Y26120D01*
X36868Y26074D01*
X36949Y26058D01*
X37006Y26069D01*
X37300Y25775D01*
Y24865D01*
X37308Y24826D01*
X37330Y24794D01*
X37567Y24556D01*
X37556Y24499D01*
X37572Y24418D01*
X37598Y24379D01*
Y21770D01*
X36425Y20596D01*
X35846D01*
X35801Y20577D01*
X35782Y20531D01*
Y19941D01*
X35801Y19895D01*
X35846Y19876D01*
X36752D01*
X36793Y19893D01*
X36843Y19874D01*
Y19793D01*
X36851Y19751D01*
X36851Y19750D01*
X36824Y19701D01*
X34516D01*
X34493Y19751D01*
X34526Y19801D01*
X34542Y19882D01*
X34526Y19963D01*
X34480Y20032D01*
X34412Y20077D01*
X34331Y20094D01*
X34250Y20077D01*
X34239Y20070D01*
X34194Y20094D01*
Y20177D01*
X33661D01*
Y20236D01*
X33602D01*
Y20612D01*
X33331D01*
X33316Y20662D01*
X33339Y20677D01*
X33385Y20746D01*
X33401Y20827D01*
X33385Y20908D01*
X33339Y20976D01*
X33270Y21022D01*
X33189Y21038D01*
X33119Y21024D01*
X33093Y21051D01*
X33086Y21065D01*
X33109Y21100D01*
X33125Y21181D01*
X33109Y21262D01*
X33063Y21331D01*
X32994Y21377D01*
X32913Y21393D01*
X32832Y21377D01*
X32764Y21331D01*
X32757Y21321D01*
X32707Y21336D01*
Y21415D01*
X32698Y21461D01*
X32671Y21500D01*
X32671Y21500D01*
X32441Y21731D01*
Y28386D01*
X31701D01*
Y28689D01*
X31751Y28714D01*
X31809Y28669D01*
X31901Y28631D01*
X31941Y28626D01*
Y29000D01*
Y29374D01*
X31901Y29369D01*
X31809Y29331D01*
X31751Y29286D01*
X31701Y29311D01*
Y29567D01*
X32283D01*
X32402Y29685D01*
Y30259D01*
X32448Y30278D01*
X32950Y29776D01*
D02*
G37*
%LPC*%
G36*
X32059Y42374D02*
Y42059D01*
X32374D01*
X32369Y42099D01*
X32331Y42191D01*
X32270Y42270D01*
X32191Y42331D01*
X32099Y42369D01*
X32059Y42374D01*
D02*
G37*
G36*
X32374Y41941D02*
X32059D01*
Y41626D01*
X32099Y41631D01*
X32191Y41669D01*
X32270Y41730D01*
X32331Y41809D01*
X32369Y41901D01*
X32374Y41941D01*
D02*
G37*
G36*
X36150Y37168D02*
X36042Y37154D01*
X35941Y37112D01*
X35854Y37045D01*
X35788Y36959D01*
X35746Y36858D01*
X35732Y36750D01*
X35746Y36642D01*
X35788Y36541D01*
X35854Y36454D01*
X35941Y36388D01*
X36042Y36346D01*
X36150Y36332D01*
X36258Y36346D01*
X36359Y36388D01*
X36446Y36454D01*
X36512Y36541D01*
X36554Y36642D01*
X36568Y36750D01*
X36554Y36858D01*
X36512Y36959D01*
X36446Y37045D01*
X36359Y37112D01*
X36258Y37154D01*
X36150Y37168D01*
D02*
G37*
G36*
X36091Y37691D02*
X35721D01*
X35728Y37637D01*
X35772Y37532D01*
X35841Y37441D01*
X35932Y37372D01*
X36037Y37328D01*
X36091Y37321D01*
Y37691D01*
D02*
G37*
G36*
X36150Y36168D02*
X36042Y36154D01*
X35941Y36112D01*
X35854Y36045D01*
X35788Y35959D01*
X35746Y35858D01*
X35732Y35750D01*
X35746Y35642D01*
X35788Y35541D01*
X35854Y35454D01*
X35941Y35388D01*
X36042Y35346D01*
X36150Y35332D01*
X36258Y35346D01*
X36359Y35388D01*
X36446Y35454D01*
X36512Y35541D01*
X36554Y35642D01*
X36568Y35750D01*
X36554Y35858D01*
X36512Y35959D01*
X36446Y36045D01*
X36359Y36112D01*
X36258Y36154D01*
X36150Y36168D01*
D02*
G37*
G36*
X37421Y35124D02*
X36437D01*
X36391Y35105D01*
X36372Y35059D01*
Y34075D01*
X36391Y34029D01*
X36437Y34010D01*
X36748D01*
Y33961D01*
X36714Y33910D01*
X36698Y33829D01*
X36714Y33748D01*
X36760Y33679D01*
X36768Y33674D01*
Y32368D01*
X36437D01*
X36391Y32349D01*
X36372Y32303D01*
Y31319D01*
X36391Y31273D01*
X36437Y31254D01*
X37421D01*
X37467Y31273D01*
X37486Y31319D01*
Y32303D01*
X37467Y32349D01*
X37421Y32368D01*
X37091D01*
Y33726D01*
X37105Y33748D01*
X37121Y33829D01*
X37105Y33910D01*
X37071Y33961D01*
Y34010D01*
X37421D01*
X37467Y34029D01*
X37486Y34075D01*
Y35059D01*
X37467Y35105D01*
X37421Y35124D01*
D02*
G37*
G36*
X36579Y37691D02*
X36209D01*
Y37321D01*
X36263Y37328D01*
X36368Y37372D01*
X36459Y37441D01*
X36528Y37532D01*
X36572Y37637D01*
X36579Y37691D01*
D02*
G37*
G36*
X36091Y42691D02*
X35721D01*
X35728Y42637D01*
X35772Y42532D01*
X35841Y42441D01*
X35932Y42372D01*
X36037Y42328D01*
X36091Y42321D01*
Y42691D01*
D02*
G37*
G36*
X36150Y42168D02*
X36042Y42154D01*
X35941Y42112D01*
X35854Y42045D01*
X35788Y41959D01*
X35746Y41858D01*
X35732Y41750D01*
X35746Y41642D01*
X35788Y41541D01*
X35854Y41455D01*
X35941Y41388D01*
X36042Y41346D01*
X36150Y41332D01*
X36258Y41346D01*
X36359Y41388D01*
X36446Y41455D01*
X36512Y41541D01*
X36554Y41642D01*
X36568Y41750D01*
X36554Y41858D01*
X36512Y41959D01*
X36446Y42045D01*
X36359Y42112D01*
X36258Y42154D01*
X36150Y42168D01*
D02*
G37*
G36*
X36091Y43179D02*
X36037Y43172D01*
X35932Y43128D01*
X35841Y43059D01*
X35772Y42968D01*
X35728Y42863D01*
X35721Y42809D01*
X36091D01*
Y43179D01*
D02*
G37*
G36*
X36209D02*
Y42809D01*
X36579D01*
X36572Y42863D01*
X36528Y42968D01*
X36459Y43059D01*
X36368Y43128D01*
X36263Y43172D01*
X36209Y43179D01*
D02*
G37*
G36*
X36579Y42691D02*
X36209D01*
Y42321D01*
X36263Y42328D01*
X36368Y42372D01*
X36459Y42441D01*
X36528Y42532D01*
X36572Y42637D01*
X36579Y42691D01*
D02*
G37*
G36*
X37941Y42941D02*
X37626D01*
X37631Y42901D01*
X37669Y42809D01*
X37730Y42730D01*
X37809Y42669D01*
X37901Y42631D01*
X37941Y42626D01*
Y42941D01*
D02*
G37*
G36*
X36150Y41168D02*
X36042Y41154D01*
X35941Y41112D01*
X35854Y41045D01*
X35788Y40959D01*
X35746Y40858D01*
X35732Y40750D01*
X35746Y40642D01*
X35788Y40541D01*
X35854Y40454D01*
X35941Y40388D01*
X36042Y40346D01*
X36150Y40332D01*
X36258Y40346D01*
X36359Y40388D01*
X36446Y40454D01*
X36512Y40541D01*
X36554Y40642D01*
X36568Y40750D01*
X36554Y40858D01*
X36512Y40959D01*
X36446Y41045D01*
X36359Y41112D01*
X36258Y41154D01*
X36150Y41168D01*
D02*
G37*
G36*
X36091Y38691D02*
X35721D01*
X35728Y38637D01*
X35772Y38532D01*
X35841Y38441D01*
X35932Y38372D01*
X36037Y38328D01*
X36091Y38321D01*
Y38691D01*
D02*
G37*
G36*
X36579D02*
X36209D01*
Y38321D01*
X36263Y38328D01*
X36368Y38372D01*
X36459Y38441D01*
X36528Y38532D01*
X36572Y38637D01*
X36579Y38691D01*
D02*
G37*
G36*
X36091Y38179D02*
X36037Y38172D01*
X35932Y38128D01*
X35841Y38059D01*
X35772Y37968D01*
X35728Y37863D01*
X35721Y37809D01*
X36091D01*
Y38179D01*
D02*
G37*
G36*
X36209D02*
Y37809D01*
X36579D01*
X36572Y37863D01*
X36528Y37968D01*
X36459Y38059D01*
X36368Y38128D01*
X36263Y38172D01*
X36209Y38179D01*
D02*
G37*
G36*
X36150Y40168D02*
X36042Y40154D01*
X35941Y40112D01*
X35854Y40045D01*
X35788Y39959D01*
X35746Y39858D01*
X35732Y39750D01*
X35746Y39642D01*
X35788Y39541D01*
X35854Y39454D01*
X35941Y39388D01*
X36042Y39346D01*
X36150Y39332D01*
X36258Y39346D01*
X36359Y39388D01*
X36446Y39454D01*
X36512Y39541D01*
X36554Y39642D01*
X36568Y39750D01*
X36554Y39858D01*
X36512Y39959D01*
X36446Y40045D01*
X36359Y40112D01*
X36258Y40154D01*
X36150Y40168D01*
D02*
G37*
G36*
X33120Y39897D02*
Y39567D01*
X33450D01*
X33445Y39611D01*
X33405Y39706D01*
X33342Y39789D01*
X33260Y39852D01*
X33164Y39891D01*
X33120Y39897D01*
D02*
G37*
G36*
X36091Y39179D02*
X36037Y39172D01*
X35932Y39128D01*
X35841Y39059D01*
X35772Y38968D01*
X35728Y38863D01*
X35721Y38809D01*
X36091D01*
Y39179D01*
D02*
G37*
G36*
X36209D02*
Y38809D01*
X36579D01*
X36572Y38863D01*
X36528Y38968D01*
X36459Y39059D01*
X36368Y39128D01*
X36263Y39172D01*
X36209Y39179D01*
D02*
G37*
G36*
X32374Y28941D02*
X32059D01*
Y28626D01*
X32099Y28631D01*
X32191Y28669D01*
X32270Y28730D01*
X32331Y28809D01*
X32369Y28901D01*
X32374Y28941D01*
D02*
G37*
G36*
X34606Y25015D02*
X34525Y24999D01*
X34457Y24953D01*
X34411Y24884D01*
X34395Y24803D01*
X34406Y24746D01*
X33974Y24314D01*
X33922D01*
X33890Y24362D01*
X33821Y24408D01*
X33740Y24424D01*
X33659Y24408D01*
X33590Y24362D01*
X33545Y24294D01*
X33528Y24213D01*
X33545Y24132D01*
X33590Y24063D01*
X33659Y24017D01*
X33740Y24001D01*
X33821Y24017D01*
X33890Y24063D01*
X33922Y24111D01*
X34016D01*
X34055Y24119D01*
X34087Y24141D01*
X34549Y24603D01*
X34606Y24591D01*
X34687Y24608D01*
X34756Y24653D01*
X34802Y24722D01*
X34818Y24803D01*
X34802Y24884D01*
X34756Y24953D01*
X34687Y24999D01*
X34606Y25015D01*
D02*
G37*
G36*
X32059Y29374D02*
Y29059D01*
X32374D01*
X32369Y29099D01*
X32331Y29191D01*
X32270Y29270D01*
X32191Y29331D01*
X32099Y29369D01*
X32059Y29374D01*
D02*
G37*
G36*
X34180Y21941D02*
X33809D01*
Y21570D01*
X34100D01*
X34131Y21576D01*
X34157Y21593D01*
X34174Y21619D01*
X34180Y21650D01*
Y21941D01*
D02*
G37*
G36*
X34750Y22414D02*
X34643Y22399D01*
X34543Y22358D01*
X34458Y22292D01*
X34392Y22207D01*
X34351Y22107D01*
X34336Y22000D01*
X34351Y21893D01*
X34392Y21793D01*
X34458Y21708D01*
X34543Y21642D01*
X34643Y21601D01*
X34750Y21586D01*
X34857Y21601D01*
X34957Y21642D01*
X35042Y21708D01*
X35108Y21793D01*
X35149Y21893D01*
X35164Y22000D01*
X35149Y22107D01*
X35108Y22207D01*
X35042Y22292D01*
X34957Y22358D01*
X34857Y22399D01*
X34750Y22414D01*
D02*
G37*
G36*
X34114Y20612D02*
X33720D01*
Y20295D01*
X34194D01*
Y20531D01*
X34188Y20562D01*
X34171Y20588D01*
X34145Y20606D01*
X34114Y20612D01*
D02*
G37*
G36*
X33691Y21941D02*
X33320D01*
Y21650D01*
X33326Y21619D01*
X33343Y21593D01*
X33369Y21576D01*
X33400Y21570D01*
X33691D01*
Y21941D01*
D02*
G37*
G36*
X35750Y22414D02*
X35643Y22399D01*
X35543Y22358D01*
X35458Y22292D01*
X35392Y22207D01*
X35351Y22107D01*
X35336Y22000D01*
X35351Y21893D01*
X35392Y21793D01*
X35458Y21708D01*
X35543Y21642D01*
X35643Y21601D01*
X35750Y21586D01*
X35857Y21601D01*
X35957Y21642D01*
X36042Y21708D01*
X36108Y21793D01*
X36149Y21893D01*
X36164Y22000D01*
X36149Y22107D01*
X36108Y22207D01*
X36042Y22292D01*
X35957Y22358D01*
X35857Y22399D01*
X35750Y22414D01*
D02*
G37*
G36*
X34100Y22430D02*
X33809D01*
Y22059D01*
X34180D01*
Y22350D01*
X34174Y22381D01*
X34157Y22407D01*
X34131Y22424D01*
X34100Y22430D01*
D02*
G37*
G36*
X35236Y24306D02*
X35155Y24290D01*
X35087Y24244D01*
X35041Y24176D01*
X35025Y24094D01*
X35041Y24013D01*
X35087Y23945D01*
X35135Y23912D01*
Y23528D01*
X35087Y23496D01*
X35041Y23427D01*
X35025Y23346D01*
X35041Y23265D01*
X35087Y23197D01*
X35155Y23151D01*
X35236Y23135D01*
X35317Y23151D01*
X35386Y23197D01*
X35432Y23265D01*
X35448Y23346D01*
X35432Y23427D01*
X35386Y23496D01*
X35338Y23528D01*
Y23912D01*
X35386Y23945D01*
X35432Y24013D01*
X35448Y24094D01*
X35432Y24176D01*
X35386Y24244D01*
X35317Y24290D01*
X35236Y24306D01*
D02*
G37*
G36*
X36750Y22414D02*
X36643Y22399D01*
X36543Y22358D01*
X36458Y22292D01*
X36392Y22207D01*
X36351Y22107D01*
X36336Y22000D01*
X36351Y21893D01*
X36392Y21793D01*
X36458Y21708D01*
X36543Y21642D01*
X36643Y21601D01*
X36750Y21586D01*
X36857Y21601D01*
X36957Y21642D01*
X37042Y21708D01*
X37108Y21793D01*
X37149Y21893D01*
X37164Y22000D01*
X37149Y22107D01*
X37108Y22207D01*
X37042Y22292D01*
X36957Y22358D01*
X36857Y22399D01*
X36750Y22414D01*
D02*
G37*
G36*
X33691Y22430D02*
X33400D01*
X33369Y22424D01*
X33343Y22407D01*
X33326Y22381D01*
X33320Y22350D01*
Y22059D01*
X33691D01*
Y22430D01*
D02*
G37*
%LPD*%
D10*
X37405Y19843D02*
D03*
X37005D02*
D03*
X37405Y20197D02*
D03*
X37005D02*
D03*
X32585Y19872D02*
D03*
X32985D02*
D03*
X32585Y20226D02*
D03*
X32985D02*
D03*
X32585Y20581D02*
D03*
X32985D02*
D03*
D11*
X36299Y20236D02*
D03*
X33661D02*
D03*
D12*
X34173Y31811D02*
D03*
X36929D02*
D03*
Y34567D02*
D03*
X34173D02*
D03*
D13*
X33031Y38504D02*
X34035Y39508D01*
X37205Y20354D02*
X37441Y20591D01*
X37205Y20043D02*
Y20354D01*
X37005Y19843D02*
X37205Y20043D01*
X37005Y20509D02*
X37008Y20512D01*
X37005Y20197D02*
Y20509D01*
X37402Y24865D02*
Y25817D01*
X36949Y26270D02*
X37402Y25817D01*
X36260Y26732D02*
X36575Y26417D01*
X36260Y26732D02*
Y27520D01*
X35264Y26957D02*
Y27520D01*
X35079Y26772D02*
X35264Y26957D01*
X35079Y26024D02*
Y26772D01*
X37402Y24865D02*
X37768Y24499D01*
X36929Y28189D02*
X37811D01*
X38000Y28000D01*
X35359Y25394D02*
X35472D01*
X34218Y26535D02*
X35359Y25394D01*
X34016Y26535D02*
X34218D01*
X35236Y23346D02*
Y24094D01*
X34016Y24213D02*
X34606Y24803D01*
X33740Y24213D02*
X34016D01*
X34035Y39508D02*
X34439D01*
X32985Y20581D02*
X33189Y20784D01*
Y20827D01*
X32923Y20226D02*
X32985D01*
X32786Y20364D02*
X32923Y20226D01*
X32786Y20364D02*
Y20975D01*
X32913Y21102D01*
Y21181D01*
X32985Y19872D02*
X33016Y19842D01*
X34290D01*
X34331Y19882D01*
D14*
X37520Y20197D02*
X38000Y20677D01*
Y21000D01*
X37405Y20197D02*
X37520D01*
X36299Y20236D02*
Y20299D01*
X38000Y22000D01*
X32000Y20000D02*
X32128Y19872D01*
X32585D01*
X32000Y20812D02*
Y21000D01*
Y20812D02*
X32585Y20226D01*
X37405Y19843D02*
X37843D01*
X38000Y20000D01*
X33071Y36417D02*
X34173D01*
X32000Y22000D02*
X32585Y21415D01*
Y20581D02*
Y21415D01*
X38000Y21858D02*
Y22000D01*
D15*
X34154Y35266D02*
X34173Y35246D01*
Y34567D02*
Y35246D01*
X33789Y31427D02*
X34173Y31811D01*
X33789Y31073D02*
Y31427D01*
D16*
X36909Y33829D02*
X36929Y33809D01*
Y31811D02*
Y33809D01*
X36909Y33829D02*
Y34547D01*
X36929Y34567D01*
D17*
X32000Y27000D02*
D03*
Y28000D02*
D03*
Y29000D02*
D03*
Y43000D02*
D03*
Y42000D02*
D03*
Y41000D02*
D03*
X38000Y29000D02*
D03*
X32000Y26000D02*
D03*
Y25000D02*
D03*
Y24000D02*
D03*
Y23000D02*
D03*
Y22000D02*
D03*
Y21000D02*
D03*
Y20000D02*
D03*
X38000D02*
D03*
Y21000D02*
D03*
Y22000D02*
D03*
Y23000D02*
D03*
Y24000D02*
D03*
Y25000D02*
D03*
Y26000D02*
D03*
Y27000D02*
D03*
Y28000D02*
D03*
X32000Y40000D02*
D03*
Y39000D02*
D03*
Y38000D02*
D03*
Y37000D02*
D03*
Y36000D02*
D03*
Y35000D02*
D03*
Y34000D02*
D03*
Y33000D02*
D03*
Y32000D02*
D03*
Y31000D02*
D03*
Y30000D02*
D03*
X38000D02*
D03*
Y31000D02*
D03*
Y32000D02*
D03*
Y33000D02*
D03*
Y34000D02*
D03*
Y35000D02*
D03*
Y36000D02*
D03*
Y37000D02*
D03*
Y38000D02*
D03*
Y39000D02*
D03*
Y40000D02*
D03*
Y41000D02*
D03*
Y42000D02*
D03*
Y43000D02*
D03*
D18*
X33061Y39508D02*
D03*
X34439D02*
D03*
D19*
X36150Y35750D02*
D03*
Y36750D02*
D03*
Y37750D02*
D03*
Y38750D02*
D03*
Y39750D02*
D03*
Y40750D02*
D03*
Y41750D02*
D03*
Y42750D02*
D03*
D20*
X33750Y22000D02*
D03*
D21*
X34750D02*
D03*
X35750D02*
D03*
X36750D02*
D03*
X33750Y27150D02*
D03*
X34750D02*
D03*
X35750D02*
D03*
X36750D02*
D03*
D22*
X32520Y42283D02*
D03*
X35236Y28071D02*
D03*
X33228Y28622D02*
D03*
Y28110D02*
D03*
X34488D02*
D03*
X34016D02*
D03*
X36417Y29213D02*
D03*
X36457Y29606D02*
D03*
Y30079D02*
D03*
Y30512D02*
D03*
X35512Y28228D02*
D03*
X36181Y28937D02*
D03*
X34134Y30512D02*
D03*
X33937Y30118D02*
D03*
X32835Y36732D02*
D03*
X33434Y30709D02*
D03*
Y31614D02*
D03*
Y32520D02*
D03*
Y33425D02*
D03*
Y34331D02*
D03*
Y35236D02*
D03*
X33425Y36102D02*
D03*
Y36732D02*
D03*
X33434Y37402D02*
D03*
X33071Y38937D02*
D03*
X33434Y38465D02*
D03*
X32538Y39370D02*
D03*
Y40354D02*
D03*
Y41417D02*
D03*
X32913Y39961D02*
D03*
Y40866D02*
D03*
X33071Y41890D02*
D03*
Y42598D02*
D03*
X36142Y24094D02*
D03*
X36181Y25354D02*
D03*
X35984Y24409D02*
D03*
X32638Y26969D02*
D03*
X35197Y20748D02*
D03*
X33701Y21102D02*
D03*
X34370Y20591D02*
D03*
X35591Y20197D02*
D03*
X36220Y20945D02*
D03*
X32953Y22205D02*
D03*
Y23307D02*
D03*
X36850Y22717D02*
D03*
X36339D02*
D03*
X33976Y22598D02*
D03*
Y22992D02*
D03*
X33740Y23661D02*
D03*
X32913Y24370D02*
D03*
X34764Y25354D02*
D03*
X33898Y25472D02*
D03*
X32638Y28228D02*
D03*
Y28819D02*
D03*
Y29370D02*
D03*
X36220Y31102D02*
D03*
X37441Y30984D02*
D03*
X37598Y32480D02*
D03*
X37520Y33504D02*
D03*
X36181Y32008D02*
D03*
X34213Y33268D02*
D03*
X34921Y31890D02*
D03*
X35276Y31535D02*
D03*
X36417Y32874D02*
D03*
X35709Y32520D02*
D03*
X34213Y35945D02*
D03*
X34961Y34606D02*
D03*
X35591Y33898D02*
D03*
X35472Y36220D02*
D03*
X36732Y36142D02*
D03*
X37520Y35512D02*
D03*
X35433Y34803D02*
D03*
X35906Y35118D02*
D03*
X37244Y37008D02*
D03*
X36811D02*
D03*
X37244Y37520D02*
D03*
X36811D02*
D03*
X37244Y38031D02*
D03*
X36811D02*
D03*
X34606Y38386D02*
D03*
Y37913D02*
D03*
Y37441D02*
D03*
X34173Y36811D02*
D03*
X34528D02*
D03*
X34173Y38976D02*
D03*
X34803Y39055D02*
D03*
X35787Y39252D02*
D03*
X37244Y38543D02*
D03*
X36811D02*
D03*
X34528Y41024D02*
D03*
X37165Y41260D02*
D03*
X36772D02*
D03*
X36614Y43110D02*
D03*
X37008Y42717D02*
D03*
X37402D02*
D03*
X37008Y43110D02*
D03*
X37402D02*
D03*
X35236D02*
D03*
X34803D02*
D03*
X35236Y42677D02*
D03*
X34803D02*
D03*
X37441Y20591D02*
D03*
X37008Y20512D02*
D03*
X36909Y33829D02*
D03*
X34154Y35266D02*
D03*
X33789Y31073D02*
D03*
X36575Y26417D02*
D03*
X36260Y27520D02*
D03*
X35264D02*
D03*
X35079Y26024D02*
D03*
X35236Y24094D02*
D03*
X36949Y26270D02*
D03*
X37768Y24499D02*
D03*
X34606Y24803D02*
D03*
X36929Y28189D02*
D03*
X35472Y25394D02*
D03*
X34016Y26535D02*
D03*
X35236Y23346D02*
D03*
X33740Y24213D02*
D03*
X33031Y38504D02*
D03*
X34173Y36417D02*
D03*
X33071D02*
D03*
X33189Y20827D02*
D03*
X32913Y21181D02*
D03*
X34331Y19882D02*
D03*
M02*
